<?xml version="1.0" encoding="UTF-8" standalone="no"?>
<!DOCTYPE svg PUBLIC "-//W3C//DTD SVG 1.1//EN" "http://www.w3.org/Graphics/SVG/1.1/DTD/svg11.dtd">
<svg width="100%" height="100%" viewBox="0 0 50 50" version="1.1" xmlns="http://www.w3.org/2000/svg" xmlns:xlink="http://www.w3.org/1999/xlink" xml:space="preserve" xmlns:serif="http://www.serif.com/" style="fill-rule:evenodd;clip-rule:evenodd;stroke-linejoin:round;stroke-miterlimit:2;">
    <g transform="matrix(1,0,0,1,-2383.74,-330.271)">
        <g transform="matrix(4.16667,0,0,4.16667,0,0)">
            <g transform="matrix(1,0,0,1,335.474,24.7641)">
                <path d="M242.615,66.482C242.197,66.482 241.789,66.439 241.396,66.358C239.448,65.955 237.847,64.607 237.092,62.815C237.026,62.658 236.966,62.497 236.913,62.333C236.726,61.753 236.625,61.134 236.625,60.492C236.625,59.924 236.704,59.375 236.852,58.854C236.898,58.691 236.951,58.53 237.011,58.372C237.615,56.775 238.883,55.503 240.478,54.894C241.142,54.64 241.862,54.501 242.615,54.501C243.368,54.501 244.089,54.64 244.752,54.894C245.951,55.352 246.964,56.183 247.651,57.246C247.601,57.301 247.56,57.35 247.586,57.397C247.619,57.374 247.656,57.342 247.687,57.304C247.697,57.319 247.707,57.335 247.717,57.351L247.656,57.424L247.732,57.38L247.735,57.381C247.759,57.42 247.782,57.46 247.805,57.499L247.746,57.491C247.769,57.593 247.778,57.584 247.73,57.67L247.832,57.611L247.788,57.569L247.822,57.528C247.975,57.797 248.108,58.079 248.219,58.372C248.279,58.53 248.332,58.691 248.378,58.854C248.385,58.878 248.391,58.901 248.398,58.924C248.397,58.929 248.397,58.933 248.397,58.938C248.398,58.936 248.399,58.934 248.4,58.932C248.534,59.429 248.605,59.952 248.605,60.492C248.605,61.134 248.504,61.753 248.317,62.333C248.264,62.497 248.204,62.658 248.138,62.815C247.383,64.607 245.782,65.955 243.835,66.358C243.441,66.439 243.033,66.482 242.615,66.482ZM238.352,64.571L238.354,64.681L238.431,64.596L238.352,64.571ZM240.427,63.416C240.405,63.416 240.379,63.449 240.382,63.498L240.46,63.496C240.463,63.439 240.446,63.416 240.427,63.416ZM240.699,63.458C240.708,63.458 240.718,63.46 240.727,63.462C240.737,63.463 240.747,63.465 240.756,63.465C240.779,63.465 240.795,63.454 240.789,63.405L240.682,63.462C240.681,63.462 240.68,63.462 240.68,63.463L240.682,63.462C240.687,63.459 240.693,63.458 240.699,63.458ZM240.92,63.064C240.882,63.064 240.837,63.097 240.88,63.127L240.959,63.125C240.97,63.08 240.946,63.064 240.92,63.064ZM241.064,63.059C241.028,63.059 240.986,63.086 240.99,63.124L241.115,63.12C241.12,63.076 241.094,63.059 241.064,63.059ZM241.366,63.059L241.225,63.118L241.366,63.059ZM241.804,63.02L241.725,62.939L241.694,62.995L241.804,63.02ZM241.711,62.339C241.702,62.345 241.694,62.352 241.689,62.363L241.711,62.339C241.746,62.32 241.798,62.329 241.798,62.25L241.711,62.339ZM240.591,62.31L240.481,62.314L240.591,62.31ZM248.161,61.855L248.089,61.947L248.146,61.921L248.161,61.855ZM248.076,61.793L248.021,61.851L248.083,61.87L248.156,61.799L248.076,61.793ZM248.068,61.694L248.035,61.773L248.113,61.758L248.104,61.758C248.014,61.758 248.179,61.697 248.068,61.694ZM236.741,61.452C236.727,61.541 236.816,61.6 236.837,61.6C236.843,61.6 236.843,61.596 236.837,61.587L236.741,61.452ZM245.102,61.116L244.883,61.149C244.899,61.166 244.961,61.181 245.015,61.181C245.074,61.181 245.125,61.164 245.102,61.116ZM245.419,60.752C245.485,60.752 245.553,60.785 245.62,60.818C245.688,60.851 245.755,60.885 245.823,60.885C245.885,60.885 245.947,60.857 246.008,60.775C245.848,60.772 245.698,60.729 245.551,60.729C245.485,60.729 245.42,60.738 245.354,60.764C245.353,60.764 245.351,60.765 245.35,60.766C245.351,60.765 245.353,60.764 245.354,60.764C245.376,60.756 245.397,60.752 245.419,60.752ZM239.244,60.724L239.292,60.833C239.325,60.81 239.368,60.805 239.414,60.805C239.427,60.805 239.44,60.806 239.453,60.806C239.466,60.806 239.479,60.807 239.492,60.807C239.568,60.807 239.642,60.796 239.683,60.712C239.661,60.683 239.593,60.693 239.605,60.639L239.62,60.604C239.612,60.618 239.607,60.629 239.605,60.639L239.573,60.715L239.541,60.689C239.55,60.636 239.533,60.625 239.506,60.625C239.496,60.625 239.485,60.626 239.474,60.628C239.462,60.629 239.45,60.631 239.438,60.631C239.418,60.631 239.399,60.626 239.384,60.61L239.37,60.721C239.351,60.674 239.325,60.647 239.304,60.647C239.286,60.647 239.273,60.668 239.275,60.716C239.265,60.69 239.154,60.733 239.196,60.643C239.163,60.647 239.137,60.649 239.116,60.649C239.088,60.649 239.068,60.646 239.05,60.643C239.032,60.641 239.016,60.638 238.997,60.638C238.976,60.638 238.951,60.641 238.914,60.651C238.929,60.748 238.917,60.718 238.931,60.815L239.057,60.785L238.962,60.732C238.982,60.711 239.001,60.703 239.019,60.703C239.052,60.703 239.084,60.729 239.116,60.755C239.148,60.781 239.181,60.808 239.218,60.808C239.222,60.808 239.225,60.808 239.229,60.807L239.244,60.724ZM239.761,60.71L239.699,60.767L239.731,60.821L239.778,60.82L239.761,60.71ZM238.083,60.783L238.067,60.619L237.989,60.731L238.083,60.783ZM241.785,60.678C241.763,60.678 241.746,60.689 241.753,60.739L241.862,60.681C241.857,60.684 241.85,60.685 241.843,60.685C241.834,60.685 241.824,60.683 241.814,60.681C241.804,60.68 241.794,60.678 241.785,60.678ZM242.055,60.525L242.15,60.605L242.164,60.495L242.134,60.578L242.055,60.525ZM239.409,60.395C239.397,60.395 239.388,60.407 239.382,60.445L239.54,60.579L239.57,60.44L239.46,60.333L239.507,60.414C239.499,60.419 239.491,60.421 239.483,60.421C239.468,60.421 239.454,60.414 239.442,60.408C239.429,60.401 239.418,60.395 239.409,60.395ZM237.908,60.511C237.914,60.511 237.92,60.512 237.927,60.513C237.933,60.514 237.94,60.515 237.946,60.515C237.966,60.515 237.98,60.505 237.971,60.456L237.893,60.431L237.893,60.514C237.897,60.512 237.902,60.511 237.908,60.511ZM244.245,60.364L244.151,60.421L244.245,60.364ZM247.368,60.032C247.337,60.032 247.296,60.067 247.294,60.095L247.404,60.092C247.406,60.048 247.389,60.032 247.368,60.032ZM247.763,59.972C247.584,59.999 247.592,59.949 247.466,60.063C247.481,60.062 247.497,60.062 247.512,60.062L247.551,60.062C247.639,60.062 247.724,60.057 247.763,59.972ZM247.951,59.912C247.965,60.012 248.01,60.046 248.059,60.046C248.113,60.046 248.173,60.004 248.202,59.96C248.149,59.961 248.098,59.98 248.052,59.98C248.013,59.98 247.978,59.966 247.951,59.912ZM247.882,59.965C247.845,59.965 247.794,60.011 247.779,60.027L247.92,60.023C247.918,59.98 247.902,59.965 247.882,59.965ZM246.03,59.869C245.988,59.869 245.953,59.892 245.929,59.967C245.944,59.954 245.962,59.949 245.98,59.949C245.998,59.949 246.016,59.953 246.035,59.957C246.053,59.961 246.071,59.965 246.088,59.965C246.118,59.965 246.145,59.953 246.164,59.906C246.115,59.89 246.07,59.869 246.03,59.869ZM245.692,59.781L245.661,59.864L245.786,59.834L245.692,59.781ZM239.219,59.68C239.165,59.503 239.017,59.365 238.886,59.365C238.841,59.365 238.798,59.381 238.762,59.417C238.767,59.416 238.772,59.416 238.777,59.416C238.967,59.416 239.098,59.652 239.219,59.68ZM248.465,59.568L248.45,59.623L248.466,59.678L248.529,59.649L248.465,59.568ZM245.636,59.465L245.464,59.47L245.636,59.465ZM242.902,59.33C242.879,59.33 242.854,59.363 242.856,59.412L242.935,59.41C242.938,59.353 242.921,59.33 242.902,59.33ZM243.174,59.372C243.183,59.372 243.192,59.373 243.202,59.375C243.212,59.377 243.222,59.378 243.231,59.378C243.253,59.378 243.27,59.368 243.263,59.318L243.156,59.375C243.156,59.376 243.155,59.376 243.154,59.376L243.156,59.375C243.162,59.373 243.168,59.372 243.174,59.372ZM244.114,59.281C244.094,59.281 244.078,59.299 244.083,59.343L244.162,59.368C244.174,59.317 244.141,59.281 244.114,59.281ZM243.394,58.977C243.356,58.977 243.312,59.011 243.355,59.041L243.434,59.038C243.444,58.993 243.421,58.977 243.394,58.977ZM243.539,58.972C243.502,58.972 243.46,59 243.464,59.038L243.59,59.034C243.594,58.99 243.568,58.972 243.539,58.972ZM243.84,58.973L243.7,59.031L243.84,58.973ZM244.279,58.933L244.2,58.853L244.169,58.909L244.279,58.933ZM243.843,58.875C243.837,58.885 243.832,58.897 243.828,58.91L243.843,58.875C243.91,58.769 244.102,58.836 243.89,58.77L243.843,58.875ZM240.086,58.683C240.069,58.683 240.053,58.687 240.038,58.696C240.132,58.72 240.222,58.867 240.289,58.867C240.301,58.867 240.311,58.862 240.321,58.853C240.269,58.777 240.17,58.683 240.086,58.683ZM241.405,58.629C241.388,58.629 241.372,58.633 241.357,58.641C241.451,58.665 241.541,58.812 241.608,58.812C241.62,58.812 241.63,58.808 241.64,58.799C241.588,58.723 241.488,58.629 241.405,58.629ZM240.28,58.413C240.313,58.413 240.34,58.424 240.333,58.495L240.255,58.497C240.27,58.597 240.31,58.652 240.241,58.69L240.336,58.771C240.347,58.722 240.335,58.717 240.32,58.717C240.318,58.717 240.316,58.717 240.314,58.718L240.309,58.718C240.297,58.718 240.286,58.715 240.289,58.689L240.303,58.551L240.381,58.577L240.382,58.659L240.539,58.655L240.475,58.546L240.444,58.602L240.35,58.522L240.364,58.439C240.338,58.426 240.291,58.366 240.258,58.366C240.242,58.366 240.23,58.379 240.223,58.415C240.225,58.416 240.227,58.416 240.229,58.416C240.237,58.416 240.246,58.415 240.254,58.414C240.263,58.413 240.272,58.413 240.28,58.413ZM241.598,58.359C241.632,58.359 241.658,58.37 241.652,58.441L241.574,58.443C241.589,58.543 241.629,58.598 241.56,58.636L241.655,58.716C241.666,58.668 241.654,58.663 241.639,58.663L241.628,58.663C241.616,58.663 241.605,58.66 241.607,58.634L241.621,58.497L241.7,58.522L241.701,58.605L241.858,58.6L241.794,58.492L241.763,58.548L241.668,58.468L241.683,58.385C241.657,58.372 241.61,58.312 241.577,58.312C241.561,58.312 241.549,58.325 241.542,58.361L241.548,58.361C241.556,58.361 241.565,58.361 241.573,58.36C241.582,58.359 241.59,58.359 241.598,58.359ZM240.553,58.484C240.543,58.484 240.533,58.494 240.522,58.517C240.561,58.529 240.599,58.644 240.629,58.644C240.642,58.644 240.654,58.624 240.663,58.569L240.617,58.625C240.608,58.583 240.585,58.484 240.553,58.484ZM241.872,58.43C241.862,58.43 241.852,58.44 241.841,58.463C241.88,58.475 241.918,58.59 241.948,58.59C241.961,58.59 241.973,58.57 241.982,58.515L241.936,58.571C241.927,58.529 241.903,58.43 241.872,58.43ZM245.928,58.391L245.913,58.501L245.992,58.581L246.023,58.498L245.928,58.391ZM245.882,58.557L245.865,58.447C245.865,58.485 245.859,58.498 245.851,58.498C245.843,58.498 245.833,58.486 245.823,58.474C245.812,58.462 245.801,58.45 245.792,58.45C245.783,58.45 245.775,58.463 245.772,58.504L245.882,58.557ZM246.006,58.388C246.007,58.472 246.109,58.495 246.129,58.495L246.132,58.495L246.1,58.413L246.006,58.388ZM240.192,58.471L240.191,58.334L240.113,58.364L240.192,58.471ZM241.022,58.367L241.039,58.449C241.067,58.349 240.986,58.3 240.911,58.3C240.848,58.3 240.791,58.334 240.803,58.4L241.022,58.367ZM241.511,58.417L241.51,58.28L241.432,58.31L241.511,58.417ZM240.521,58.408C240.494,58.306 240.524,58.354 240.552,58.297L240.364,58.357L240.521,58.408ZM244.136,58.323L244.2,58.404L244.278,58.347L244.136,58.323ZM238.564,58.328C238.542,58.328 238.517,58.341 238.501,58.352L238.611,58.404C238.612,58.345 238.59,58.328 238.564,58.328ZM242.341,58.312L242.358,58.394C242.386,58.294 242.305,58.246 242.23,58.246C242.167,58.246 242.109,58.279 242.122,58.346L242.341,58.312ZM241.84,58.353C241.813,58.252 241.843,58.299 241.871,58.243L241.683,58.303L241.84,58.353ZM247.924,58.003L247.917,58.003L247.918,58.258L247.845,58.266C247.861,58.274 247.875,58.278 247.888,58.278C247.945,58.278 247.981,58.209 247.989,58.14C247.997,58.072 247.978,58.003 247.924,58.003ZM244.186,58.253C244.177,58.258 244.169,58.266 244.163,58.277L244.186,58.253C244.221,58.233 244.272,58.242 244.272,58.163L244.186,58.253ZM243.065,58.224L242.955,58.227L243.065,58.224ZM240.162,58.037L239.927,58.071L239.943,58.152L239.897,58.209C239.992,58.17 240.04,58.193 240.132,58.147C240.128,58.148 240.124,58.148 240.12,58.148C240.038,58.148 240.142,58.061 240.162,58.037ZM240.273,58.199C240.248,58.101 240.326,58.181 240.319,58.115L240.288,58.061L240.147,58.175L240.273,58.199ZM240.398,58.195L240.351,58.086L240.335,58.169L240.398,58.195ZM241.757,58.127L241.648,58.157L241.757,58.127ZM243.931,58.078C243.947,58.078 243.964,58.092 243.981,58.105C243.998,58.119 244.015,58.133 244.029,58.133C244.04,58.133 244.049,58.126 244.056,58.106L243.899,58.027L243.899,58.11C243.908,58.087 243.919,58.078 243.931,58.078ZM241.602,58.057L241.524,58.114L241.602,58.057ZM244.495,58.039L244.385,58.069L244.495,58.039ZM242.869,57.931L242.775,58.016L242.869,57.931ZM243.873,57.986C243.861,57.938 243.873,57.931 243.89,57.931C243.893,57.931 243.897,57.931 243.901,57.932L243.913,57.932C243.926,57.932 243.937,57.928 243.935,57.902C243.93,57.903 243.925,57.904 243.92,57.904C243.897,57.904 243.87,57.894 243.845,57.884C243.819,57.875 243.794,57.865 243.774,57.865C243.753,57.865 243.737,57.875 243.731,57.908C243.805,57.937 243.832,57.888 243.873,57.986ZM246.13,57.821L246.178,57.93C246.211,57.906 246.254,57.902 246.3,57.902C246.313,57.902 246.326,57.903 246.339,57.903C246.352,57.903 246.366,57.904 246.38,57.904C246.455,57.904 246.528,57.892 246.569,57.81C246.547,57.78 246.479,57.79 246.491,57.736L246.505,57.701C246.498,57.715 246.493,57.727 246.491,57.736L246.459,57.813L246.428,57.786C246.437,57.733 246.419,57.722 246.392,57.722C246.383,57.722 246.371,57.723 246.359,57.725C246.348,57.726 246.336,57.728 246.324,57.728C246.303,57.728 246.284,57.723 246.27,57.707L246.255,57.818C246.237,57.771 246.21,57.744 246.19,57.744C246.172,57.744 246.159,57.766 246.161,57.813C246.151,57.786 246.04,57.83 246.082,57.74C246.049,57.744 246.023,57.746 246.002,57.746C245.973,57.746 245.953,57.743 245.935,57.74C245.918,57.737 245.902,57.735 245.882,57.735C245.862,57.735 245.837,57.738 245.8,57.747C245.802,57.76 245.804,57.77 245.805,57.779C245.752,57.703 245.654,57.612 245.572,57.612C245.555,57.612 245.538,57.616 245.523,57.625C245.617,57.648 245.708,57.795 245.775,57.795C245.786,57.795 245.796,57.792 245.805,57.783C245.812,57.839 245.805,57.829 245.817,57.912L245.942,57.881L245.848,57.829C245.868,57.808 245.887,57.8 245.906,57.8C245.939,57.8 245.97,57.826 246.002,57.852C246.034,57.879 246.067,57.905 246.105,57.905C246.108,57.905 246.112,57.905 246.115,57.904L246.13,57.821ZM244.948,57.696C244.931,57.696 244.915,57.7 244.9,57.708C244.994,57.732 245.084,57.879 245.151,57.879C245.163,57.879 245.173,57.875 245.183,57.866C245.131,57.79 245.032,57.696 244.948,57.696ZM247.789,57.823L247.746,57.763L247.795,57.718C247.82,57.703 247.844,57.687 247.851,57.668L247.795,57.718C247.74,57.752 247.68,57.78 247.789,57.823ZM245.143,57.426C245.176,57.426 245.202,57.438 245.196,57.508L245.117,57.51C245.132,57.61 245.172,57.664 245.104,57.703L245.198,57.783C245.21,57.735 245.197,57.73 245.182,57.73L245.176,57.73C245.174,57.73 245.173,57.731 245.171,57.731C245.159,57.731 245.148,57.728 245.15,57.702L245.165,57.564L245.244,57.589L245.244,57.672L245.401,57.668L245.337,57.559L245.307,57.615L245.212,57.535L245.227,57.452C245.2,57.438 245.153,57.379 245.12,57.379C245.104,57.379 245.092,57.392 245.085,57.429L245.089,57.429C245.097,57.429 245.107,57.428 245.116,57.427C245.125,57.426 245.134,57.426 245.143,57.426ZM240.879,57.728L240.77,57.759L240.879,57.728ZM245.819,57.389C245.82,57.399 245.82,57.41 245.819,57.424L245.741,57.426C245.756,57.526 245.796,57.58 245.727,57.619L245.821,57.699C245.833,57.651 245.82,57.646 245.805,57.646L245.794,57.646C245.782,57.646 245.771,57.644 245.774,57.618L245.788,57.48L245.867,57.505L245.868,57.587L246.024,57.583L245.96,57.475L245.93,57.531L245.835,57.451L245.847,57.385L245.885,57.379L245.901,57.461C245.928,57.366 245.855,57.317 245.783,57.313C245.769,57.303 245.755,57.295 245.743,57.295C245.731,57.295 245.72,57.303 245.713,57.325C245.699,57.331 245.686,57.34 245.677,57.352L245.677,57.263L245.599,57.292L245.665,57.382C245.663,57.391 245.663,57.402 245.665,57.413L245.819,57.389ZM245.415,57.497C245.405,57.497 245.395,57.507 245.384,57.53C245.423,57.542 245.461,57.657 245.491,57.657C245.504,57.657 245.516,57.637 245.526,57.582L245.479,57.638C245.47,57.596 245.446,57.497 245.415,57.497ZM241.991,57.532L241.897,57.618L241.991,57.532ZM242.995,57.588C242.983,57.54 242.995,57.532 243.012,57.532C243.016,57.532 243.02,57.533 243.024,57.533C243.028,57.533 243.032,57.534 243.036,57.534C243.049,57.534 243.059,57.529 243.057,57.504C243.052,57.505 243.047,57.506 243.042,57.506C243.019,57.506 242.992,57.496 242.967,57.486C242.941,57.476 242.917,57.466 242.896,57.466C242.875,57.466 242.859,57.477 242.853,57.509C242.927,57.538 242.954,57.489 242.995,57.588ZM246.038,57.413C246.029,57.413 246.018,57.423 246.007,57.446C246.046,57.458 246.084,57.573 246.115,57.573C246.128,57.573 246.139,57.553 246.149,57.497L246.103,57.554C246.094,57.512 246.07,57.413 246.038,57.413ZM245.054,57.484L245.053,57.347L244.975,57.377L245.054,57.484ZM240.197,57.262L240.183,57.372L240.262,57.452L240.292,57.369L240.197,57.262ZM240.152,57.428L240.135,57.318C240.135,57.357 240.129,57.369 240.121,57.369C240.113,57.369 240.103,57.357 240.092,57.345C240.082,57.333 240.071,57.321 240.062,57.321C240.052,57.321 240.045,57.335 240.042,57.375L240.152,57.428ZM245.383,57.42C245.356,57.319 245.386,57.367 245.414,57.309L245.226,57.37L245.383,57.42ZM240.276,57.259C240.277,57.343 240.379,57.366 240.399,57.366L240.402,57.366L240.37,57.284L240.276,57.259ZM246.006,57.336C245.979,57.235 246.009,57.283 246.037,57.226L245.849,57.286L246.006,57.336ZM242.272,57.23L242.418,57.311L242.272,57.23ZM242.426,57.269L242.401,57.226L242.409,57.155L242.449,57.168L242.45,57.211L242.531,57.209L242.498,57.153L242.482,57.182L242.433,57.14L242.44,57.097L242.368,57.085L242.424,57.126L242.384,57.127L242.377,57.227L242.426,57.269ZM242.547,57.166C242.558,57.184 242.568,57.203 242.577,57.203C242.584,57.203 242.59,57.193 242.595,57.164L242.571,57.193L242.547,57.166C242.539,57.153 242.531,57.14 242.522,57.138L242.547,57.166ZM245.145,57.124L245.067,57.182L245.145,57.124ZM243.757,57.064C243.742,57.064 243.73,57.079 243.734,57.124L243.813,57.123C243.811,57.099 243.78,57.064 243.757,57.064ZM242.351,57.114L242.351,57.043L242.311,57.058L242.351,57.114ZM242.781,57.06L242.79,57.102C242.804,57.05 242.762,57.025 242.723,57.025C242.691,57.025 242.661,57.042 242.667,57.077L242.781,57.06ZM245.769,57.04L245.691,57.098L245.769,57.04ZM242.537,57.023L242.44,57.055L242.522,57.081L242.537,57.023ZM242.398,56.928L242.358,56.957L242.398,56.928ZM242.236,56.624L242.174,56.681L242.206,56.735L242.252,56.733L242.236,56.624ZM244.26,56.592C244.237,56.592 244.221,56.603 244.227,56.652L244.337,56.594C244.331,56.597 244.325,56.599 244.317,56.599C244.308,56.599 244.298,56.597 244.289,56.595C244.279,56.593 244.269,56.592 244.26,56.592ZM242.354,56.488L242.346,56.545L242.387,56.587L242.403,56.543L242.354,56.488ZM242.331,56.574L242.322,56.517L242.273,56.547L242.331,56.574ZM242.46,56.542L242.443,56.5L242.394,56.487L242.46,56.542ZM245.059,56.274L245.044,56.385L245.124,56.465L245.154,56.382L245.059,56.274ZM245.014,56.44L244.997,56.33C244.996,56.369 244.991,56.382 244.983,56.382C244.975,56.382 244.965,56.37 244.954,56.358C244.944,56.346 244.933,56.334 244.924,56.334C244.914,56.334 244.907,56.348 244.904,56.389L245.014,56.44ZM243.9,56.405L244.073,56.428L243.9,56.405ZM245.67,56.287L245.668,56.301L245.747,56.381L245.778,56.297L245.683,56.19L245.675,56.244L245.652,56.19L245.637,56.273L245.67,56.287ZM245.138,56.272C245.139,56.356 245.242,56.379 245.261,56.379L245.264,56.379L245.233,56.3C245.307,56.279 245.354,56.291 245.433,56.251L245.421,56.251C245.34,56.251 245.443,56.164 245.463,56.141L245.228,56.175L245.245,56.256L245.215,56.292L245.138,56.272ZM245.637,56.356L245.621,56.247C245.62,56.285 245.615,56.298 245.606,56.298C245.599,56.298 245.588,56.286 245.578,56.274C245.575,56.271 245.572,56.268 245.57,56.265C245.575,56.229 245.626,56.273 245.621,56.219L245.589,56.165L245.449,56.278L245.528,56.293C245.527,56.297 245.527,56.3 245.527,56.304L245.637,56.356ZM245.761,56.188C245.763,56.272 245.864,56.295 245.884,56.295C245.886,56.295 245.887,56.295 245.888,56.294L245.855,56.213L245.761,56.188ZM242.097,56.112L242.113,56.194C242.141,56.094 242.06,56.045 241.985,56.045C241.923,56.045 241.865,56.079 241.878,56.146L242.097,56.112ZM239.275,60.724L239.275,60.716C239.276,60.718 239.276,60.72 239.275,60.724ZM246.162,57.82C246.161,57.818 246.161,57.815 246.161,57.813C246.162,57.815 246.162,57.817 246.162,57.82Z" style="fill:url(#_Radial1);"/>
            </g>
            <g transform="matrix(1,0,0,1,335.474,24.7641)">
                <path d="M245.528,56.293L245.449,56.278L245.589,56.165L245.621,56.219C245.626,56.273 245.575,56.229 245.57,56.265C245.562,56.257 245.554,56.25 245.547,56.25C245.538,56.25 245.531,56.261 245.528,56.293Z" style="fill:url(#_Radial2);"/>
            </g>
            <g transform="matrix(1,0,0,1,335.474,24.7641)">
                <path d="M237.946,60.515C237.94,60.515 237.933,60.514 237.927,60.513C237.92,60.512 237.914,60.511 237.908,60.511C237.902,60.511 237.897,60.512 237.893,60.514L237.893,60.431L237.971,60.456C237.98,60.505 237.966,60.515 237.946,60.515Z" style="fill:url(#_Radial3);"/>
            </g>
            <g transform="matrix(1,0,0,1,335.474,24.7641)">
                <path d="M238.083,60.783L237.989,60.731L238.067,60.619L238.083,60.783Z" style="fill:url(#_Radial4);"/>
            </g>
            <g transform="matrix(1,0,0,1,335.474,24.7641)">
                <path d="M238.611,58.404L238.501,58.352C238.517,58.341 238.542,58.328 238.564,58.328C238.59,58.328 238.612,58.345 238.611,58.404Z" style="fill:url(#_Radial5);"/>
            </g>
            <g transform="matrix(1,0,0,1,335.474,24.7641)">
                <path d="M239.219,59.68C239.098,59.652 238.967,59.416 238.777,59.416C238.772,59.416 238.767,59.416 238.762,59.417C238.798,59.381 238.841,59.365 238.886,59.365C239.017,59.365 239.165,59.503 239.219,59.68Z" style="fill:url(#_Radial6);"/>
            </g>
            <g transform="matrix(1,0,0,1,335.474,24.7641)">
                <path d="M239.54,60.579L239.382,60.445C239.388,60.407 239.397,60.395 239.409,60.395C239.418,60.395 239.429,60.401 239.442,60.408C239.454,60.414 239.468,60.421 239.483,60.421C239.491,60.421 239.499,60.419 239.507,60.414L239.46,60.333L239.57,60.44L239.54,60.579Z" style="fill:url(#_Radial7);"/>
            </g>
            <g transform="matrix(1,0,0,1,335.474,24.7641)">
                <path d="M239.731,60.821L239.699,60.767L239.761,60.71L239.778,60.82L239.731,60.821Z" style="fill:url(#_Radial8);"/>
            </g>
            <g transform="matrix(1,0,0,1,335.474,24.7641)">
                <path d="M240.382,63.498C240.379,63.449 240.405,63.416 240.427,63.416C240.446,63.416 240.463,63.439 240.46,63.496L240.382,63.498Z" style="fill:url(#_Radial9);"/>
            </g>
            <g transform="matrix(1,0,0,1,335.474,24.7641)">
                <path d="M240.481,62.314L240.591,62.31L240.481,62.314Z" style="fill:url(#_Radial10);"/>
            </g>
            <g transform="matrix(1,0,0,1,335.474,24.7641)">
                <path d="M240.756,63.465C240.747,63.465 240.737,63.463 240.727,63.462C240.718,63.46 240.708,63.458 240.699,63.458C240.693,63.458 240.687,63.459 240.682,63.462L240.789,63.405C240.795,63.454 240.779,63.465 240.756,63.465ZM240.68,63.463C240.68,63.462 240.681,63.462 240.682,63.462L240.68,63.463Z" style="fill:url(#_Radial11);"/>
            </g>
            <g transform="matrix(1,0,0,1,335.474,24.7641)">
                <path d="M240.88,63.127C240.837,63.097 240.882,63.064 240.92,63.064C240.946,63.064 240.97,63.08 240.959,63.125L240.88,63.127Z" style="fill:url(#_Radial12);"/>
            </g>
            <g transform="matrix(1,0,0,1,335.474,24.7641)">
                <path d="M240.99,63.124C240.986,63.086 241.028,63.059 241.064,63.059C241.094,63.059 241.12,63.076 241.115,63.12L240.99,63.124Z" style="fill:url(#_Radial13);"/>
            </g>
            <g transform="matrix(1,0,0,1,335.474,24.7641)">
                <path d="M241.804,63.02L241.694,62.995L241.725,62.939L241.804,63.02Z" style="fill:url(#_Radial14);"/>
            </g>
            <g transform="matrix(1,0,0,1,335.474,24.7641)">
                <path d="M241.753,60.739C241.746,60.689 241.763,60.678 241.785,60.678C241.794,60.678 241.804,60.68 241.814,60.681C241.824,60.683 241.834,60.685 241.843,60.685C241.85,60.685 241.857,60.684 241.862,60.681L241.753,60.739Z" style="fill:url(#_Radial15);"/>
            </g>
            <g transform="matrix(1,0,0,1,335.474,24.7641)">
                <path d="M239.292,60.833L239.244,60.724L239.229,60.807C239.225,60.808 239.222,60.808 239.218,60.808C239.181,60.808 239.148,60.781 239.116,60.755C239.084,60.729 239.052,60.703 239.019,60.703C239.001,60.703 238.982,60.711 238.962,60.732L239.057,60.785L238.931,60.815C238.917,60.718 238.929,60.748 238.914,60.651C238.951,60.641 238.976,60.638 238.997,60.638C239.016,60.638 239.032,60.641 239.05,60.643C239.068,60.646 239.088,60.649 239.116,60.649C239.137,60.649 239.163,60.647 239.196,60.643C239.154,60.733 239.265,60.69 239.275,60.716L239.275,60.724C239.276,60.72 239.276,60.718 239.275,60.716C239.273,60.668 239.286,60.647 239.304,60.647C239.325,60.647 239.351,60.674 239.37,60.721L239.384,60.61C239.399,60.626 239.418,60.631 239.438,60.631C239.45,60.631 239.462,60.629 239.474,60.628C239.485,60.626 239.496,60.625 239.506,60.625C239.533,60.625 239.55,60.636 239.541,60.689L239.573,60.715L239.605,60.639C239.593,60.693 239.661,60.683 239.683,60.712C239.642,60.796 239.568,60.807 239.492,60.807C239.479,60.807 239.466,60.806 239.453,60.806C239.44,60.806 239.427,60.805 239.414,60.805C239.368,60.805 239.325,60.81 239.292,60.833ZM239.605,60.639C239.607,60.629 239.612,60.618 239.62,60.604L239.605,60.639Z" style="fill:url(#_Radial16);"/>
            </g>
            <g transform="matrix(1,0,0,1,335.474,24.7641)">
                <path d="M241.225,63.118L241.366,63.059L241.225,63.118Z" style="fill:url(#_Radial17);"/>
            </g>
            <g transform="matrix(1,0,0,1,335.474,24.7641)">
                <path d="M241.689,62.363C241.694,62.352 241.702,62.345 241.711,62.339L241.689,62.363ZM241.711,62.339L241.798,62.25C241.798,62.329 241.746,62.32 241.711,62.339Z" style="fill:url(#_Radial18);"/>
            </g>
            <g transform="matrix(1,0,0,1,335.474,24.7641)">
                <path d="M240.289,58.867C240.222,58.867 240.132,58.72 240.038,58.696C240.053,58.687 240.069,58.683 240.086,58.683C240.17,58.683 240.269,58.777 240.321,58.853C240.311,58.862 240.301,58.867 240.289,58.867Z" style="fill:url(#_Radial19);"/>
            </g>
            <g transform="matrix(1,0,0,1,335.474,24.7641)">
                <path d="M240.152,57.428L240.042,57.375C240.045,57.335 240.052,57.321 240.062,57.321C240.071,57.321 240.082,57.333 240.092,57.345C240.103,57.357 240.113,57.369 240.121,57.369C240.129,57.369 240.135,57.357 240.135,57.318L240.152,57.428Z" style="fill:url(#_Radial20);"/>
            </g>
            <g transform="matrix(1,0,0,1,335.474,24.7641)">
                <path d="M240.192,58.471L240.113,58.364L240.191,58.334L240.192,58.471Z" style="fill:url(#_Radial21);"/>
            </g>
            <g transform="matrix(1,0,0,1,335.474,24.7641)">
                <path d="M240.521,58.408L240.364,58.357L240.552,58.297C240.524,58.354 240.494,58.306 240.521,58.408Z" style="fill:url(#_Radial22);"/>
            </g>
            <g transform="matrix(1,0,0,1,335.474,24.7641)">
                <path d="M241.039,58.449L241.022,58.367L240.803,58.4C240.791,58.334 240.848,58.3 240.911,58.3C240.986,58.3 241.067,58.349 241.039,58.449Z" style="fill:url(#_Radial23);"/>
            </g>
            <g transform="matrix(1,0,0,1,335.474,24.7641)">
                <path d="M241.648,58.157L241.757,58.127L241.648,58.157Z" style="fill:url(#_Radial24);"/>
            </g>
            <g transform="matrix(1,0,0,1,335.474,24.7641)">
                <path d="M242.775,58.016L242.869,57.931L242.775,58.016Z" style="fill:url(#_Radial25);"/>
            </g>
            <g transform="matrix(1,0,0,1,335.474,24.7641)">
                <path d="M243.873,57.986C243.832,57.888 243.805,57.937 243.731,57.908C243.737,57.875 243.753,57.865 243.774,57.865C243.794,57.865 243.819,57.875 243.845,57.884C243.87,57.894 243.897,57.904 243.92,57.904C243.925,57.904 243.93,57.903 243.935,57.902C243.937,57.928 243.926,57.932 243.913,57.932L243.901,57.932C243.897,57.931 243.893,57.931 243.89,57.931C243.873,57.931 243.861,57.938 243.873,57.986Z" style="fill:url(#_Radial26);"/>
            </g>
            <g transform="matrix(1,0,0,1,335.474,24.7641)">
                <path d="M240.262,57.452L240.183,57.372L240.197,57.262L240.292,57.369L240.262,57.452Z" style="fill:url(#_Radial27);"/>
            </g>
            <g transform="matrix(1,0,0,1,335.474,24.7641)">
                <path d="M240.336,58.771L240.241,58.69C240.31,58.652 240.27,58.597 240.255,58.497L240.333,58.495C240.34,58.424 240.313,58.413 240.28,58.413C240.272,58.413 240.263,58.413 240.254,58.414C240.246,58.415 240.237,58.416 240.229,58.416C240.227,58.416 240.225,58.416 240.223,58.415C240.23,58.379 240.242,58.366 240.258,58.366C240.291,58.366 240.338,58.426 240.364,58.439L240.35,58.522L240.444,58.602L240.475,58.546L240.539,58.655L240.382,58.659L240.381,58.577L240.303,58.551L240.289,58.689C240.286,58.715 240.297,58.718 240.309,58.718L240.314,58.718C240.316,58.717 240.318,58.717 240.32,58.717C240.335,58.717 240.347,58.722 240.336,58.771Z" style="fill:url(#_Radial28);"/>
            </g>
            <g transform="matrix(1,0,0,1,335.474,24.7641)">
                <path d="M240.399,57.366C240.379,57.366 240.277,57.343 240.276,57.259L240.37,57.284L240.402,57.366L240.399,57.366Z" style="fill:url(#_Radial29);"/>
            </g>
            <g transform="matrix(1,0,0,1,335.474,24.7641)">
                <path d="M240.629,58.644C240.599,58.644 240.561,58.529 240.522,58.517C240.533,58.494 240.543,58.484 240.553,58.484C240.585,58.484 240.608,58.583 240.617,58.625L240.663,58.569C240.654,58.624 240.642,58.644 240.629,58.644Z" style="fill:url(#_Radial30);"/>
            </g>
            <g transform="matrix(1,0,0,1,335.474,24.7641)">
                <path d="M242.206,56.735L242.174,56.681L242.236,56.624L242.252,56.733L242.206,56.735Z" style="fill:url(#_Radial31);"/>
            </g>
            <g transform="matrix(1,0,0,1,335.474,24.7641)">
                <path d="M242.856,59.412C242.854,59.363 242.879,59.33 242.902,59.33C242.921,59.33 242.938,59.353 242.935,59.41L242.856,59.412Z" style="fill:url(#_Radial32);"/>
            </g>
            <g transform="matrix(1,0,0,1,335.474,24.7641)">
                <path d="M242.955,58.227L243.065,58.224L242.955,58.227Z" style="fill:url(#_Radial33);"/>
            </g>
            <g transform="matrix(1,0,0,1,335.474,24.7641)">
                <path d="M243.231,59.378C243.222,59.378 243.212,59.377 243.202,59.375C243.192,59.373 243.183,59.372 243.174,59.372C243.168,59.372 243.162,59.373 243.156,59.375L243.263,59.318C243.27,59.368 243.253,59.378 243.231,59.378ZM243.154,59.376C243.155,59.376 243.156,59.376 243.156,59.375L243.154,59.376Z" style="fill:url(#_Radial34);"/>
            </g>
            <g transform="matrix(1,0,0,1,335.474,24.7641)">
                <path d="M243.355,59.041C243.312,59.011 243.356,58.977 243.394,58.977C243.421,58.977 243.444,58.993 243.434,59.038L243.355,59.041Z" style="fill:url(#_Radial35);"/>
            </g>
            <g transform="matrix(1,0,0,1,335.474,24.7641)">
                <path d="M243.464,59.038C243.46,59 243.502,58.972 243.539,58.972C243.568,58.972 243.594,58.99 243.59,59.034L243.464,59.038Z" style="fill:url(#_Radial36);"/>
            </g>
            <g transform="matrix(1,0,0,1,335.474,24.7641)">
                <path d="M244.151,60.421L244.245,60.364L244.151,60.421Z" style="fill:url(#_Radial37);"/>
            </g>
            <g transform="matrix(1,0,0,1,335.474,24.7641)">
                <path d="M244.279,58.933L244.169,58.909L244.2,58.853L244.279,58.933Z" style="fill:url(#_Radial38);"/>
            </g>
            <g transform="matrix(1,0,0,1,335.474,24.7641)">
                <path d="M244.227,56.652C244.221,56.603 244.237,56.592 244.26,56.592C244.269,56.592 244.279,56.593 244.289,56.595C244.298,56.597 244.308,56.599 244.317,56.599C244.325,56.599 244.331,56.597 244.337,56.594L244.227,56.652Z" style="fill:url(#_Radial39);"/>
            </g>
            <g transform="matrix(1,0,0,1,335.474,24.7641)">
                <path d="M246.178,57.93L246.13,57.821L246.115,57.904C246.112,57.905 246.108,57.905 246.105,57.905C246.067,57.905 246.034,57.879 246.002,57.852C245.97,57.826 245.939,57.8 245.906,57.8C245.887,57.8 245.868,57.808 245.848,57.829L245.942,57.881L245.817,57.912C245.805,57.829 245.812,57.839 245.805,57.783C245.806,57.783 245.806,57.782 245.807,57.782C245.806,57.781 245.805,57.78 245.805,57.779C245.804,57.77 245.802,57.76 245.8,57.747C245.837,57.738 245.862,57.735 245.882,57.735C245.902,57.735 245.918,57.737 245.935,57.74C245.953,57.743 245.973,57.746 246.002,57.746C246.023,57.746 246.049,57.744 246.082,57.74C246.04,57.83 246.151,57.786 246.161,57.813C246.161,57.815 246.161,57.818 246.162,57.82C246.162,57.817 246.162,57.815 246.161,57.813C246.159,57.766 246.172,57.744 246.19,57.744C246.21,57.744 246.237,57.771 246.255,57.818L246.27,57.707C246.284,57.723 246.303,57.728 246.324,57.728C246.336,57.728 246.348,57.726 246.359,57.725C246.371,57.723 246.383,57.722 246.392,57.722C246.419,57.722 246.437,57.733 246.428,57.786L246.459,57.813L246.491,57.736C246.479,57.79 246.547,57.78 246.569,57.81C246.528,57.892 246.455,57.904 246.38,57.904C246.366,57.904 246.352,57.903 246.339,57.903C246.326,57.903 246.313,57.902 246.3,57.902C246.254,57.902 246.211,57.906 246.178,57.93ZM246.491,57.736C246.493,57.727 246.498,57.715 246.505,57.701L246.491,57.736Z" style="fill:url(#_Radial40);"/>
            </g>
            <g transform="matrix(1,0,0,1,335.474,24.7641)">
                <path d="M243.7,59.031L243.84,58.973L243.7,59.031Z" style="fill:url(#_Radial41);"/>
            </g>
            <g transform="matrix(1,0,0,1,335.474,24.7641)">
                <path d="M244.163,58.277C244.169,58.266 244.177,58.258 244.186,58.253L244.163,58.277ZM244.186,58.253L244.272,58.163C244.272,58.242 244.221,58.233 244.186,58.253Z" style="fill:url(#_Radial42);"/>
            </g>
            <g transform="matrix(1,0,0,1,335.474,24.7641)">
                <path d="M242.418,57.311L242.272,57.23L242.418,57.311Z" style="fill:url(#_Radial43);"/>
            </g>
            <g transform="matrix(1,0,0,1,335.474,24.7641)">
                <path d="M242.331,56.574L242.273,56.547L242.322,56.517L242.331,56.574Z" style="fill:url(#_Radial44);"/>
            </g>
            <g transform="matrix(1,0,0,1,335.474,24.7641)">
                <path d="M242.351,57.114L242.311,57.058L242.351,57.043L242.351,57.114Z" style="fill:url(#_Radial45);"/>
            </g>
            <g transform="matrix(1,0,0,1,335.474,24.7641)">
                <path d="M242.358,56.957L242.398,56.928L242.358,56.957Z" style="fill:url(#_Radial46);"/>
            </g>
            <g transform="matrix(1,0,0,1,335.474,24.7641)">
                <path d="M242.522,57.081L242.44,57.055L242.537,57.023L242.522,57.081Z" style="fill:url(#_Radial47);"/>
            </g>
            <g transform="matrix(1,0,0,1,335.474,24.7641)">
                <path d="M242.79,57.102L242.781,57.06L242.667,57.077C242.661,57.042 242.691,57.025 242.723,57.025C242.762,57.025 242.804,57.05 242.79,57.102Z" style="fill:url(#_Radial48);"/>
            </g>
            <g transform="matrix(1,0,0,1,335.474,24.7641)">
                <path d="M242.387,56.587L242.346,56.545L242.354,56.488L242.403,56.543L242.387,56.587Z" style="fill:url(#_Radial49);"/>
            </g>
            <g transform="matrix(1,0,0,1,335.474,24.7641)">
                <path d="M242.426,57.269L242.377,57.227L242.384,57.127L242.424,57.126L242.368,57.085L242.44,57.097L242.433,57.14L242.482,57.182L242.498,57.153L242.531,57.209L242.45,57.211L242.449,57.168L242.409,57.155L242.401,57.226L242.426,57.269Z" style="fill:url(#_Radial50);"/>
            </g>
            <g transform="matrix(1,0,0,1,335.474,24.7641)">
                <path d="M242.46,56.542L242.394,56.487L242.443,56.5L242.46,56.542Z" style="fill:url(#_Radial51);"/>
            </g>
            <g transform="matrix(1,0,0,1,335.474,24.7641)">
                <path d="M242.577,57.203C242.568,57.203 242.558,57.184 242.547,57.166L242.571,57.193L242.595,57.164C242.59,57.193 242.584,57.203 242.577,57.203ZM242.547,57.166L242.522,57.138C242.531,57.14 242.539,57.153 242.547,57.166Z" style="fill:url(#_Radial52);"/>
            </g>
            <g transform="matrix(1,0,0,1,335.474,24.7641)">
                <path d="M241.608,58.812C241.541,58.812 241.451,58.665 241.357,58.641C241.372,58.633 241.388,58.629 241.405,58.629C241.488,58.629 241.588,58.723 241.64,58.799C241.63,58.808 241.62,58.812 241.608,58.812Z" style="fill:url(#_Radial53);"/>
            </g>
            <g transform="matrix(1,0,0,1,335.474,24.7641)">
                <path d="M245.882,58.557L245.772,58.504C245.775,58.463 245.783,58.45 245.792,58.45C245.801,58.45 245.812,58.462 245.823,58.474C245.833,58.486 245.843,58.498 245.851,58.498C245.859,58.498 245.865,58.485 245.865,58.447L245.882,58.557Z" style="fill:url(#_Radial54);"/>
            </g>
            <g transform="matrix(1,0,0,1,335.474,24.7641)">
                <path d="M241.511,58.417L241.432,58.31L241.51,58.28L241.511,58.417Z" style="fill:url(#_Radial55);"/>
            </g>
            <g transform="matrix(1,0,0,1,335.474,24.7641)">
                <path d="M241.524,58.114L241.602,58.057L241.524,58.114Z" style="fill:url(#_Radial56);"/>
            </g>
            <g transform="matrix(1,0,0,1,335.474,24.7641)">
                <path d="M241.84,58.353L241.683,58.303L241.871,58.243C241.843,58.299 241.813,58.252 241.84,58.353Z" style="fill:url(#_Radial57);"/>
            </g>
            <g transform="matrix(1,0,0,1,335.474,24.7641)">
                <path d="M242.358,58.394L242.341,58.312L242.122,58.346C242.109,58.279 242.167,58.246 242.23,58.246C242.305,58.246 242.386,58.294 242.358,58.394Z" style="fill:url(#_Radial58);"/>
            </g>
            <g transform="matrix(1,0,0,1,335.474,24.7641)">
                <path d="M240.77,57.759L240.879,57.728L240.77,57.759Z" style="fill:url(#_Radial59);"/>
            </g>
            <g transform="matrix(1,0,0,1,335.474,24.7641)">
                <path d="M241.897,57.618L241.991,57.532L241.897,57.618Z" style="fill:url(#_Radial60);"/>
            </g>
            <g transform="matrix(1,0,0,1,335.474,24.7641)">
                <path d="M242.995,57.588C242.954,57.489 242.927,57.538 242.853,57.509C242.859,57.477 242.875,57.466 242.896,57.466C242.917,57.466 242.941,57.476 242.967,57.486C242.992,57.496 243.019,57.506 243.042,57.506C243.047,57.506 243.052,57.505 243.057,57.504C243.059,57.529 243.049,57.534 243.036,57.534C243.032,57.534 243.028,57.533 243.024,57.533C243.02,57.533 243.016,57.532 243.012,57.532C242.995,57.532 242.983,57.54 242.995,57.588Z" style="fill:url(#_Radial61);"/>
            </g>
            <g transform="matrix(1,0,0,1,335.474,24.7641)">
                <path d="M245.992,58.581L245.913,58.501L245.928,58.391L246.023,58.498L245.992,58.581Z" style="fill:url(#_Radial62);"/>
            </g>
            <g transform="matrix(1,0,0,1,335.474,24.7641)">
                <path d="M241.655,58.716L241.56,58.636C241.629,58.598 241.589,58.543 241.574,58.443L241.652,58.441C241.658,58.37 241.632,58.359 241.598,58.359C241.59,58.359 241.582,58.359 241.573,58.36C241.565,58.361 241.556,58.361 241.548,58.361L241.542,58.361C241.549,58.325 241.561,58.312 241.577,58.312C241.61,58.312 241.657,58.372 241.683,58.385L241.668,58.468L241.763,58.548L241.794,58.492L241.858,58.6L241.701,58.605L241.7,58.522L241.621,58.497L241.607,58.634C241.605,58.66 241.616,58.663 241.628,58.663L241.639,58.663C241.654,58.663 241.666,58.668 241.655,58.716Z" style="fill:url(#_Radial63);"/>
            </g>
            <g transform="matrix(1,0,0,1,335.474,24.7641)">
                <path d="M246.129,58.495C246.109,58.495 246.007,58.472 246.006,58.388L246.1,58.413L246.132,58.495L246.129,58.495Z" style="fill:url(#_Radial64);"/>
            </g>
            <g transform="matrix(1,0,0,1,335.474,24.7641)">
                <path d="M241.948,58.59C241.918,58.59 241.88,58.475 241.841,58.463C241.852,58.44 241.862,58.43 241.872,58.43C241.903,58.43 241.927,58.529 241.936,58.571L241.982,58.515C241.973,58.57 241.961,58.59 241.948,58.59Z" style="fill:url(#_Radial65);"/>
            </g>
            <g transform="matrix(1,0,0,1,335.474,24.7641)">
                <path d="M245.929,59.967C245.953,59.892 245.988,59.869 246.03,59.869C246.07,59.869 246.115,59.89 246.164,59.906C246.145,59.953 246.118,59.965 246.088,59.965C246.071,59.965 246.053,59.961 246.035,59.957C246.016,59.953 245.998,59.949 245.98,59.949C245.962,59.949 245.944,59.954 245.929,59.967Z" style="fill:url(#_Radial66);"/>
            </g>
            <g transform="matrix(1,0,0,1,335.474,24.7641)">
                <path d="M247.294,60.095C247.296,60.067 247.337,60.032 247.368,60.032C247.389,60.032 247.406,60.048 247.404,60.092L247.294,60.095Z" style="fill:url(#_Radial67);"/>
            </g>
            <g transform="matrix(1,0,0,1,335.474,24.7641)">
                <path d="M247.466,60.063C247.592,59.949 247.584,59.999 247.763,59.972C247.724,60.057 247.639,60.062 247.551,60.062L247.512,60.062C247.497,60.062 247.481,60.062 247.466,60.063Z" style="fill:url(#_Radial68);"/>
            </g>
            <g transform="matrix(1,0,0,1,335.474,24.7641)">
                <path d="M248.059,60.046C248.01,60.046 247.965,60.012 247.951,59.912C247.978,59.966 248.013,59.98 248.052,59.98C248.098,59.98 248.149,59.961 248.202,59.96C248.173,60.004 248.113,60.046 248.059,60.046Z" style="fill:url(#_Radial69);"/>
            </g>
            <g transform="matrix(1,0,0,1,335.474,24.7641)">
                <path d="M248.466,59.678L248.45,59.623L248.465,59.568L248.529,59.649L248.466,59.678Z" style="fill:url(#_Radial70);"/>
            </g>
            <g transform="matrix(1,0,0,1,335.474,24.7641)">
                <path d="M243.734,57.124C243.73,57.079 243.742,57.064 243.757,57.064C243.78,57.064 243.811,57.099 243.813,57.123L243.734,57.124Z" style="fill:url(#_Radial71);"/>
            </g>
            <g transform="matrix(1,0,0,1,335.474,24.7641)">
                <path d="M244.162,59.368L244.083,59.343C244.078,59.299 244.094,59.281 244.114,59.281C244.141,59.281 244.174,59.317 244.162,59.368Z" style="fill:url(#_Radial72);"/>
            </g>
            <g transform="matrix(1,0,0,1,335.474,24.7641)">
                <path d="M244.385,58.069L244.495,58.039L244.385,58.069Z" style="fill:url(#_Radial73);"/>
            </g>
            <g transform="matrix(1,0,0,1,335.474,24.7641)">
                <path d="M245.823,60.885C245.755,60.885 245.688,60.851 245.62,60.818C245.553,60.785 245.485,60.752 245.419,60.752C245.397,60.752 245.376,60.756 245.354,60.764C245.42,60.738 245.485,60.729 245.551,60.729C245.698,60.729 245.848,60.772 246.008,60.775C245.947,60.857 245.885,60.885 245.823,60.885ZM245.35,60.766C245.351,60.765 245.353,60.764 245.354,60.764C245.353,60.764 245.351,60.765 245.35,60.766Z" style="fill:url(#_Radial74);"/>
            </g>
            <g transform="matrix(1,0,0,1,335.474,24.7641)">
                <path d="M245.661,59.864L245.692,59.781L245.786,59.834L245.661,59.864Z" style="fill:url(#_Radial75);"/>
            </g>
            <g transform="matrix(1,0,0,1,335.474,24.7641)">
                <path d="M247.779,60.027C247.794,60.011 247.845,59.965 247.882,59.965C247.902,59.965 247.918,59.98 247.92,60.023L247.779,60.027Z" style="fill:url(#_Radial76);"/>
            </g>
            <g transform="matrix(1,0,0,1,335.474,24.7641)">
                <path d="M242.15,60.605L242.055,60.525L242.134,60.578L242.164,60.495L242.15,60.605Z" style="fill:url(#_Radial77);"/>
            </g>
            <g transform="matrix(1,0,0,1,335.474,24.7641)">
                <path d="M243.828,58.91C243.832,58.897 243.837,58.885 243.843,58.875L243.828,58.91ZM243.843,58.875L243.89,58.77C244.102,58.836 243.91,58.769 243.843,58.875Z" style="fill:url(#_Radial78);"/>
            </g>
            <g transform="matrix(1,0,0,1,335.474,24.7641)">
                <path d="M244.029,58.133C244.015,58.133 243.998,58.119 243.981,58.105C243.964,58.092 243.947,58.078 243.931,58.078C243.919,58.078 243.908,58.087 243.899,58.11L243.899,58.027L244.056,58.106C244.049,58.126 244.04,58.133 244.029,58.133Z" style="fill:url(#_Radial79);"/>
            </g>
            <g transform="matrix(1,0,0,1,335.474,24.7641)">
                <path d="M244.073,56.428L243.9,56.405L244.073,56.428Z" style="fill:url(#_Radial80);"/>
            </g>
            <g transform="matrix(1,0,0,1,335.474,24.7641)">
                <path d="M244.2,58.404L244.136,58.323L244.278,58.347L244.2,58.404Z" style="fill:url(#_Radial81);"/>
            </g>
            <g transform="matrix(1,0,0,1,335.474,24.7641)">
                <path d="M245.464,59.47L245.636,59.465L245.464,59.47Z" style="fill:url(#_Radial82);"/>
            </g>
            <g transform="matrix(1,0,0,1,335.474,24.7641)">
                <path d="M245.151,57.879C245.084,57.879 244.994,57.732 244.9,57.708C244.915,57.7 244.931,57.696 244.948,57.696C245.032,57.696 245.131,57.79 245.183,57.866C245.173,57.875 245.163,57.879 245.151,57.879Z" style="fill:url(#_Radial83);"/>
            </g>
            <g transform="matrix(1,0,0,1,335.474,24.7641)">
                <path d="M245.014,56.44L244.904,56.389C244.907,56.348 244.914,56.334 244.924,56.334C244.933,56.334 244.944,56.346 244.954,56.358C244.965,56.37 244.975,56.382 244.983,56.382C244.991,56.382 244.996,56.369 244.997,56.33L245.014,56.44Z" style="fill:url(#_Radial84);"/>
            </g>
            <g transform="matrix(1,0,0,1,335.474,24.7641)">
                <path d="M245.054,57.484L244.975,57.377L245.053,57.347L245.054,57.484Z" style="fill:url(#_Radial85);"/>
            </g>
            <g transform="matrix(1,0,0,1,335.474,24.7641)">
                <path d="M245.067,57.182L245.145,57.124L245.067,57.182Z" style="fill:url(#_Radial86);"/>
            </g>
            <g transform="matrix(1,0,0,1,335.474,24.7641)">
                <path d="M245.383,57.42L245.226,57.37L245.414,57.309C245.386,57.367 245.356,57.319 245.383,57.42Z" style="fill:url(#_Radial87);"/>
            </g>
            <g transform="matrix(1,0,0,1,335.474,24.7641)">
                <path d="M245.901,57.461L245.885,57.379L245.847,57.385L245.85,57.368C245.833,57.359 245.808,57.332 245.783,57.313C245.855,57.317 245.928,57.366 245.901,57.461ZM245.665,57.413C245.663,57.402 245.663,57.391 245.665,57.382L245.678,57.4L245.677,57.352C245.686,57.34 245.699,57.331 245.713,57.325C245.711,57.33 245.71,57.337 245.708,57.344L245.714,57.344C245.722,57.344 245.731,57.344 245.74,57.343C245.748,57.342 245.757,57.341 245.765,57.341C245.792,57.341 245.815,57.349 245.819,57.389L245.665,57.413Z" style="fill:url(#_Radial88);"/>
            </g>
            <g transform="matrix(1,0,0,1,335.474,24.7641)">
                <path d="M245.124,56.465L245.044,56.385L245.059,56.274L245.154,56.382L245.124,56.465Z" style="fill:url(#_Radial89);"/>
            </g>
            <g transform="matrix(1,0,0,1,335.474,24.7641)">
                <path d="M245.198,57.783L245.104,57.703C245.172,57.664 245.132,57.61 245.117,57.51L245.196,57.508C245.202,57.438 245.176,57.426 245.143,57.426C245.134,57.426 245.125,57.426 245.116,57.427C245.107,57.428 245.097,57.429 245.089,57.429L245.085,57.429C245.092,57.392 245.104,57.379 245.12,57.379C245.153,57.379 245.2,57.438 245.227,57.452L245.212,57.535L245.307,57.615L245.337,57.559L245.401,57.668L245.244,57.672L245.244,57.589L245.165,57.564L245.15,57.702C245.148,57.728 245.159,57.731 245.171,57.731C245.173,57.731 245.174,57.73 245.176,57.73L245.182,57.73C245.197,57.73 245.21,57.735 245.198,57.783Z" style="fill:url(#_Radial90);"/>
            </g>
            <g transform="matrix(1,0,0,1,335.474,24.7641)">
                <path d="M245.261,56.379C245.242,56.379 245.139,56.356 245.138,56.272L245.215,56.292L245.198,56.313C245.211,56.308 245.222,56.304 245.233,56.3L245.264,56.379L245.261,56.379Z" style="fill:url(#_Radial91);"/>
            </g>
            <g transform="matrix(1,0,0,1,335.474,24.7641)">
                <path d="M247.888,58.278C247.875,58.278 247.861,58.274 247.845,58.266L247.918,58.258L247.917,58.003L247.924,58.003C247.978,58.003 247.997,58.072 247.989,58.14C247.981,58.209 247.945,58.278 247.888,58.278Z" style="fill:url(#_Radial92);"/>
            </g>
            <g transform="matrix(1,0,0,1,335.474,24.7641)">
                <path d="M247.73,57.67C247.778,57.584 247.769,57.593 247.746,57.491L247.805,57.499C247.811,57.509 247.816,57.518 247.822,57.528L247.788,57.569L247.832,57.611L247.73,57.67ZM247.656,57.424L247.717,57.351C247.723,57.361 247.729,57.371 247.735,57.381L247.732,57.38L247.656,57.424Z" style="fill:url(#_Radial93);"/>
            </g>
            <g transform="matrix(1,0,0,1,335.474,24.7641)">
                <path d="M247.789,57.823C247.68,57.78 247.74,57.752 247.795,57.718L247.746,57.763L247.789,57.823ZM247.795,57.718L247.851,57.668C247.844,57.687 247.82,57.703 247.795,57.718Z" style="fill:url(#_Radial94);"/>
            </g>
            <g transform="matrix(1,0,0,1,335.474,24.7641)">
                <path d="M245.198,56.313L245.215,56.292L245.245,56.256L245.228,56.175L245.463,56.141C245.443,56.164 245.34,56.251 245.421,56.251L245.433,56.251C245.354,56.291 245.307,56.279 245.233,56.3C245.222,56.304 245.211,56.308 245.198,56.313Z" style="fill:url(#_Radial95);"/>
            </g>
            <g transform="matrix(1,0,0,1,335.474,24.7641)">
                <path d="M245.67,56.287L245.637,56.273L245.652,56.19L245.675,56.244L245.67,56.287Z" style="fill:url(#_Radial96);"/>
            </g>
            <g transform="matrix(1,0,0,1,335.474,24.7641)">
                <path d="M245.775,57.795C245.708,57.795 245.617,57.648 245.523,57.625C245.538,57.616 245.555,57.612 245.572,57.612C245.654,57.612 245.752,57.703 245.805,57.779C245.805,57.78 245.806,57.781 245.807,57.782C245.806,57.782 245.806,57.783 245.805,57.783C245.796,57.792 245.786,57.795 245.775,57.795Z" style="fill:url(#_Radial97);"/>
            </g>
            <g transform="matrix(1,0,0,1,335.474,24.7641)">
                <path d="M245.637,56.356L245.527,56.304C245.527,56.3 245.527,56.297 245.528,56.293C245.531,56.261 245.538,56.25 245.547,56.25C245.554,56.25 245.562,56.257 245.57,56.265C245.572,56.268 245.575,56.271 245.578,56.274C245.588,56.286 245.599,56.298 245.606,56.298C245.615,56.298 245.62,56.285 245.621,56.247L245.637,56.356Z" style="fill:url(#_Radial98);"/>
            </g>
            <g transform="matrix(1,0,0,1,335.474,24.7641)">
                <path d="M245.678,57.4L245.665,57.382L245.599,57.292L245.677,57.263L245.677,57.352L245.678,57.4Z" style="fill:url(#_Radial99);"/>
            </g>
            <g transform="matrix(1,0,0,1,335.474,24.7641)">
                <path d="M245.691,57.098L245.769,57.04L245.691,57.098Z" style="fill:url(#_Radial100);"/>
            </g>
            <g transform="matrix(1,0,0,1,335.474,24.7641)">
                <path d="M246.006,57.336L245.849,57.286L246.037,57.226C246.009,57.283 245.979,57.235 246.006,57.336Z" style="fill:url(#_Radial101);"/>
            </g>
            <g transform="matrix(1,0,0,1,335.474,24.7641)">
                <path d="M242.113,56.194L242.097,56.112L241.878,56.146C241.865,56.079 241.923,56.045 241.985,56.045C242.06,56.045 242.141,56.094 242.113,56.194Z" style="fill:url(#_Radial102);"/>
            </g>
            <g transform="matrix(1,0,0,1,335.474,24.7641)">
                <path d="M245.747,56.381L245.668,56.301L245.67,56.287L245.675,56.244L245.683,56.19L245.778,56.297L245.747,56.381Z" style="fill:url(#_Radial103);"/>
            </g>
            <g transform="matrix(1,0,0,1,335.474,24.7641)">
                <path d="M245.821,57.699L245.727,57.619C245.796,57.58 245.756,57.526 245.741,57.426L245.819,57.424C245.82,57.41 245.82,57.399 245.819,57.389C245.815,57.349 245.792,57.341 245.765,57.341C245.757,57.341 245.748,57.342 245.74,57.343C245.731,57.344 245.722,57.344 245.714,57.344L245.708,57.344C245.71,57.337 245.711,57.33 245.713,57.325C245.72,57.303 245.731,57.295 245.743,57.295C245.755,57.295 245.769,57.303 245.783,57.313C245.808,57.332 245.833,57.359 245.85,57.368L245.847,57.385L245.835,57.451L245.93,57.531L245.96,57.475L246.024,57.583L245.868,57.587L245.867,57.505L245.788,57.48L245.774,57.618C245.771,57.644 245.782,57.646 245.794,57.646L245.805,57.646C245.82,57.646 245.833,57.651 245.821,57.699Z" style="fill:url(#_Radial104);"/>
            </g>
            <g transform="matrix(1,0,0,1,335.474,24.7641)">
                <path d="M245.884,56.295C245.864,56.295 245.763,56.272 245.761,56.188L245.855,56.213L245.888,56.294C245.887,56.295 245.886,56.295 245.884,56.295Z" style="fill:url(#_Radial105);"/>
            </g>
            <g transform="matrix(1,0,0,1,335.474,24.7641)">
                <path d="M246.115,57.573C246.084,57.573 246.046,57.458 246.007,57.446C246.018,57.423 246.029,57.413 246.038,57.413C246.07,57.413 246.094,57.512 246.103,57.554L246.149,57.497C246.139,57.553 246.128,57.573 246.115,57.573Z" style="fill:url(#_Radial106);"/>
            </g>
            <g transform="matrix(1,0,0,1,335.474,24.7641)">
                <path d="M240.273,58.199L240.147,58.175L240.288,58.061L240.319,58.115C240.326,58.181 240.248,58.101 240.273,58.199Z" style="fill:url(#_Radial107);"/>
            </g>
            <g transform="matrix(1,0,0,1,335.474,24.7641)">
                <path d="M239.897,58.209L239.943,58.152L239.927,58.071L240.162,58.037C240.142,58.061 240.038,58.148 240.12,58.148C240.124,58.148 240.128,58.148 240.132,58.147C240.04,58.193 239.992,58.17 239.897,58.209Z" style="fill:url(#_Radial108);"/>
            </g>
            <g transform="matrix(1,0,0,1,335.474,24.7641)">
                <path d="M240.398,58.195L240.335,58.169L240.351,58.086L240.398,58.195Z" style="fill:url(#_Radial109);"/>
            </g>
            <g transform="matrix(1,0,0,1,335.474,24.7641)">
                <path d="M236.837,61.6C236.816,61.6 236.727,61.541 236.741,61.452L236.837,61.587C236.843,61.596 236.843,61.6 236.837,61.6Z" style="fill:url(#_Radial110);"/>
            </g>
            <g transform="matrix(1,0,0,1,335.474,24.7641)">
                <path d="M238.354,64.681L238.352,64.571L238.431,64.596L238.354,64.681Z" style="fill:url(#_Radial111);"/>
            </g>
            <g transform="matrix(1,0,0,1,335.474,24.7641)">
                <path d="M248.035,61.773L248.068,61.694C248.179,61.697 248.014,61.758 248.104,61.758L248.113,61.758L248.035,61.773Z" style="fill:url(#_Radial112);"/>
            </g>
            <g transform="matrix(1,0,0,1,335.474,24.7641)">
                <path d="M248.083,61.87L248.021,61.851L248.076,61.793L248.156,61.799L248.083,61.87Z" style="fill:url(#_Radial113);"/>
            </g>
            <g transform="matrix(1,0,0,1,335.474,24.7641)">
                <path d="M248.089,61.947L248.161,61.855L248.146,61.921L248.089,61.947Z" style="fill:url(#_Radial114);"/>
            </g>
        </g>
    </g>
    <defs>
        <radialGradient id="_Radial1" cx="0" cy="0" r="1" gradientUnits="userSpaceOnUse" gradientTransform="matrix(8.04207,0,0,8.04207,240.862,58.5439)"><stop offset="0" style="stop-color:rgb(133,221,218);stop-opacity:1"/><stop offset="1" style="stop-color:rgb(89,156,218);stop-opacity:1"/></radialGradient>
        <radialGradient id="_Radial2" cx="0" cy="0" r="1" gradientUnits="userSpaceOnUse" gradientTransform="matrix(8.04207,0,0,8.04207,240.862,58.5439)"><stop offset="0" style="stop-color:rgb(161,234,230);stop-opacity:1"/><stop offset="1" style="stop-color:rgb(123,188,230);stop-opacity:1"/></radialGradient>
        <radialGradient id="_Radial3" cx="0" cy="0" r="1" gradientUnits="userSpaceOnUse" gradientTransform="matrix(8.04207,0,0,8.04207,240.862,58.5439)"><stop offset="0" style="stop-color:rgb(161,234,230);stop-opacity:1"/><stop offset="1" style="stop-color:rgb(123,188,230);stop-opacity:1"/></radialGradient>
        <radialGradient id="_Radial4" cx="0" cy="0" r="1" gradientUnits="userSpaceOnUse" gradientTransform="matrix(8.04207,0,0,8.04207,240.862,58.5439)"><stop offset="0" style="stop-color:rgb(161,234,230);stop-opacity:1"/><stop offset="1" style="stop-color:rgb(123,188,230);stop-opacity:1"/></radialGradient>
        <radialGradient id="_Radial5" cx="0" cy="0" r="1" gradientUnits="userSpaceOnUse" gradientTransform="matrix(8.04207,0,0,8.04207,240.862,58.5439)"><stop offset="0" style="stop-color:rgb(161,234,230);stop-opacity:1"/><stop offset="1" style="stop-color:rgb(123,188,230);stop-opacity:1"/></radialGradient>
        <radialGradient id="_Radial6" cx="0" cy="0" r="1" gradientUnits="userSpaceOnUse" gradientTransform="matrix(8.04207,0,0,8.04207,240.862,58.5439)"><stop offset="0" style="stop-color:rgb(161,234,230);stop-opacity:1"/><stop offset="1" style="stop-color:rgb(123,188,230);stop-opacity:1"/></radialGradient>
        <radialGradient id="_Radial7" cx="0" cy="0" r="1" gradientUnits="userSpaceOnUse" gradientTransform="matrix(8.04207,0,0,8.04207,240.862,58.5439)"><stop offset="0" style="stop-color:rgb(161,234,230);stop-opacity:1"/><stop offset="1" style="stop-color:rgb(123,188,230);stop-opacity:1"/></radialGradient>
        <radialGradient id="_Radial8" cx="0" cy="0" r="1" gradientUnits="userSpaceOnUse" gradientTransform="matrix(8.04207,0,0,8.04207,240.862,58.5439)"><stop offset="0" style="stop-color:rgb(161,234,230);stop-opacity:1"/><stop offset="1" style="stop-color:rgb(123,188,230);stop-opacity:1"/></radialGradient>
        <radialGradient id="_Radial9" cx="0" cy="0" r="1" gradientUnits="userSpaceOnUse" gradientTransform="matrix(8.04207,0,0,8.04207,240.862,58.5439)"><stop offset="0" style="stop-color:rgb(161,234,230);stop-opacity:1"/><stop offset="1" style="stop-color:rgb(123,188,230);stop-opacity:1"/></radialGradient>
        <radialGradient id="_Radial10" cx="0" cy="0" r="1" gradientUnits="userSpaceOnUse" gradientTransform="matrix(8.04207,0,0,8.04207,240.862,58.5439)"><stop offset="0" style="stop-color:rgb(161,234,230);stop-opacity:1"/><stop offset="1" style="stop-color:rgb(123,188,230);stop-opacity:1"/></radialGradient>
        <radialGradient id="_Radial11" cx="0" cy="0" r="1" gradientUnits="userSpaceOnUse" gradientTransform="matrix(8.04207,0,0,8.04207,240.862,58.5439)"><stop offset="0" style="stop-color:rgb(161,234,230);stop-opacity:1"/><stop offset="1" style="stop-color:rgb(123,188,230);stop-opacity:1"/></radialGradient>
        <radialGradient id="_Radial12" cx="0" cy="0" r="1" gradientUnits="userSpaceOnUse" gradientTransform="matrix(8.04207,0,0,8.04207,240.862,58.5439)"><stop offset="0" style="stop-color:rgb(161,234,230);stop-opacity:1"/><stop offset="1" style="stop-color:rgb(123,188,230);stop-opacity:1"/></radialGradient>
        <radialGradient id="_Radial13" cx="0" cy="0" r="1" gradientUnits="userSpaceOnUse" gradientTransform="matrix(8.04207,0,0,8.04207,240.862,58.5439)"><stop offset="0" style="stop-color:rgb(161,234,230);stop-opacity:1"/><stop offset="1" style="stop-color:rgb(123,188,230);stop-opacity:1"/></radialGradient>
        <radialGradient id="_Radial14" cx="0" cy="0" r="1" gradientUnits="userSpaceOnUse" gradientTransform="matrix(8.04207,0,0,8.04207,240.862,58.5439)"><stop offset="0" style="stop-color:rgb(161,234,230);stop-opacity:1"/><stop offset="1" style="stop-color:rgb(123,188,230);stop-opacity:1"/></radialGradient>
        <radialGradient id="_Radial15" cx="0" cy="0" r="1" gradientUnits="userSpaceOnUse" gradientTransform="matrix(8.04207,0,0,8.04207,240.862,58.5439)"><stop offset="0" style="stop-color:rgb(161,234,230);stop-opacity:1"/><stop offset="1" style="stop-color:rgb(123,188,230);stop-opacity:1"/></radialGradient>
        <radialGradient id="_Radial16" cx="0" cy="0" r="1" gradientUnits="userSpaceOnUse" gradientTransform="matrix(8.04207,0,0,8.04207,240.862,58.5439)"><stop offset="0" style="stop-color:rgb(161,234,230);stop-opacity:1"/><stop offset="1" style="stop-color:rgb(123,188,230);stop-opacity:1"/></radialGradient>
        <radialGradient id="_Radial17" cx="0" cy="0" r="1" gradientUnits="userSpaceOnUse" gradientTransform="matrix(8.04207,0,0,8.04207,240.862,58.5439)"><stop offset="0" style="stop-color:rgb(161,234,230);stop-opacity:1"/><stop offset="1" style="stop-color:rgb(123,188,230);stop-opacity:1"/></radialGradient>
        <radialGradient id="_Radial18" cx="0" cy="0" r="1" gradientUnits="userSpaceOnUse" gradientTransform="matrix(8.04207,0,0,8.04207,240.862,58.5439)"><stop offset="0" style="stop-color:rgb(161,234,230);stop-opacity:1"/><stop offset="1" style="stop-color:rgb(123,188,230);stop-opacity:1"/></radialGradient>
        <radialGradient id="_Radial19" cx="0" cy="0" r="1" gradientUnits="userSpaceOnUse" gradientTransform="matrix(8.04207,0,0,8.04207,240.862,58.5439)"><stop offset="0" style="stop-color:rgb(161,234,230);stop-opacity:1"/><stop offset="1" style="stop-color:rgb(123,188,230);stop-opacity:1"/></radialGradient>
        <radialGradient id="_Radial20" cx="0" cy="0" r="1" gradientUnits="userSpaceOnUse" gradientTransform="matrix(8.04207,0,0,8.04207,240.862,58.5439)"><stop offset="0" style="stop-color:rgb(161,234,230);stop-opacity:1"/><stop offset="1" style="stop-color:rgb(123,188,230);stop-opacity:1"/></radialGradient>
        <radialGradient id="_Radial21" cx="0" cy="0" r="1" gradientUnits="userSpaceOnUse" gradientTransform="matrix(8.04207,0,0,8.04207,240.862,58.5439)"><stop offset="0" style="stop-color:rgb(161,234,230);stop-opacity:1"/><stop offset="1" style="stop-color:rgb(123,188,230);stop-opacity:1"/></radialGradient>
        <radialGradient id="_Radial22" cx="0" cy="0" r="1" gradientUnits="userSpaceOnUse" gradientTransform="matrix(8.04207,0,0,8.04207,240.862,58.5439)"><stop offset="0" style="stop-color:rgb(161,234,230);stop-opacity:1"/><stop offset="1" style="stop-color:rgb(123,188,230);stop-opacity:1"/></radialGradient>
        <radialGradient id="_Radial23" cx="0" cy="0" r="1" gradientUnits="userSpaceOnUse" gradientTransform="matrix(8.04207,0,0,8.04207,240.862,58.5439)"><stop offset="0" style="stop-color:rgb(161,234,230);stop-opacity:1"/><stop offset="1" style="stop-color:rgb(123,188,230);stop-opacity:1"/></radialGradient>
        <radialGradient id="_Radial24" cx="0" cy="0" r="1" gradientUnits="userSpaceOnUse" gradientTransform="matrix(8.04207,0,0,8.04207,240.862,58.5439)"><stop offset="0" style="stop-color:rgb(161,234,230);stop-opacity:1"/><stop offset="1" style="stop-color:rgb(123,188,230);stop-opacity:1"/></radialGradient>
        <radialGradient id="_Radial25" cx="0" cy="0" r="1" gradientUnits="userSpaceOnUse" gradientTransform="matrix(8.04207,0,0,8.04207,240.862,58.5439)"><stop offset="0" style="stop-color:rgb(161,234,230);stop-opacity:1"/><stop offset="1" style="stop-color:rgb(123,188,230);stop-opacity:1"/></radialGradient>
        <radialGradient id="_Radial26" cx="0" cy="0" r="1" gradientUnits="userSpaceOnUse" gradientTransform="matrix(8.04207,0,0,8.04207,240.862,58.5439)"><stop offset="0" style="stop-color:rgb(161,234,230);stop-opacity:1"/><stop offset="1" style="stop-color:rgb(123,188,230);stop-opacity:1"/></radialGradient>
        <radialGradient id="_Radial27" cx="0" cy="0" r="1" gradientUnits="userSpaceOnUse" gradientTransform="matrix(8.04207,0,0,8.04207,240.862,58.5439)"><stop offset="0" style="stop-color:rgb(161,234,230);stop-opacity:1"/><stop offset="1" style="stop-color:rgb(123,188,230);stop-opacity:1"/></radialGradient>
        <radialGradient id="_Radial28" cx="0" cy="0" r="1" gradientUnits="userSpaceOnUse" gradientTransform="matrix(8.04207,0,0,8.04207,240.862,58.5439)"><stop offset="0" style="stop-color:rgb(161,234,230);stop-opacity:1"/><stop offset="1" style="stop-color:rgb(123,188,230);stop-opacity:1"/></radialGradient>
        <radialGradient id="_Radial29" cx="0" cy="0" r="1" gradientUnits="userSpaceOnUse" gradientTransform="matrix(8.04207,0,0,8.04207,240.862,58.5439)"><stop offset="0" style="stop-color:rgb(161,234,230);stop-opacity:1"/><stop offset="1" style="stop-color:rgb(123,188,230);stop-opacity:1"/></radialGradient>
        <radialGradient id="_Radial30" cx="0" cy="0" r="1" gradientUnits="userSpaceOnUse" gradientTransform="matrix(8.04207,0,0,8.04207,240.862,58.5439)"><stop offset="0" style="stop-color:rgb(161,234,230);stop-opacity:1"/><stop offset="1" style="stop-color:rgb(123,188,230);stop-opacity:1"/></radialGradient>
        <radialGradient id="_Radial31" cx="0" cy="0" r="1" gradientUnits="userSpaceOnUse" gradientTransform="matrix(8.04207,0,0,8.04207,240.862,58.5439)"><stop offset="0" style="stop-color:rgb(161,234,230);stop-opacity:1"/><stop offset="1" style="stop-color:rgb(123,188,230);stop-opacity:1"/></radialGradient>
        <radialGradient id="_Radial32" cx="0" cy="0" r="1" gradientUnits="userSpaceOnUse" gradientTransform="matrix(8.04207,0,0,8.04207,240.862,58.5439)"><stop offset="0" style="stop-color:rgb(161,234,230);stop-opacity:1"/><stop offset="1" style="stop-color:rgb(123,188,230);stop-opacity:1"/></radialGradient>
        <radialGradient id="_Radial33" cx="0" cy="0" r="1" gradientUnits="userSpaceOnUse" gradientTransform="matrix(8.04207,0,0,8.04207,240.862,58.5439)"><stop offset="0" style="stop-color:rgb(161,234,230);stop-opacity:1"/><stop offset="1" style="stop-color:rgb(123,188,230);stop-opacity:1"/></radialGradient>
        <radialGradient id="_Radial34" cx="0" cy="0" r="1" gradientUnits="userSpaceOnUse" gradientTransform="matrix(8.04207,0,0,8.04207,240.862,58.5439)"><stop offset="0" style="stop-color:rgb(161,234,230);stop-opacity:1"/><stop offset="1" style="stop-color:rgb(123,188,230);stop-opacity:1"/></radialGradient>
        <radialGradient id="_Radial35" cx="0" cy="0" r="1" gradientUnits="userSpaceOnUse" gradientTransform="matrix(8.04207,0,0,8.04207,240.862,58.5439)"><stop offset="0" style="stop-color:rgb(161,234,230);stop-opacity:1"/><stop offset="1" style="stop-color:rgb(123,188,230);stop-opacity:1"/></radialGradient>
        <radialGradient id="_Radial36" cx="0" cy="0" r="1" gradientUnits="userSpaceOnUse" gradientTransform="matrix(8.04207,0,0,8.04207,240.862,58.5439)"><stop offset="0" style="stop-color:rgb(161,234,230);stop-opacity:1"/><stop offset="1" style="stop-color:rgb(123,188,230);stop-opacity:1"/></radialGradient>
        <radialGradient id="_Radial37" cx="0" cy="0" r="1" gradientUnits="userSpaceOnUse" gradientTransform="matrix(8.04207,0,0,8.04207,240.862,58.5439)"><stop offset="0" style="stop-color:rgb(161,234,230);stop-opacity:1"/><stop offset="1" style="stop-color:rgb(123,188,230);stop-opacity:1"/></radialGradient>
        <radialGradient id="_Radial38" cx="0" cy="0" r="1" gradientUnits="userSpaceOnUse" gradientTransform="matrix(8.04207,0,0,8.04207,240.862,58.5439)"><stop offset="0" style="stop-color:rgb(161,234,230);stop-opacity:1"/><stop offset="1" style="stop-color:rgb(123,188,230);stop-opacity:1"/></radialGradient>
        <radialGradient id="_Radial39" cx="0" cy="0" r="1" gradientUnits="userSpaceOnUse" gradientTransform="matrix(8.04207,0,0,8.04207,240.862,58.5439)"><stop offset="0" style="stop-color:rgb(161,234,230);stop-opacity:1"/><stop offset="1" style="stop-color:rgb(123,188,230);stop-opacity:1"/></radialGradient>
        <radialGradient id="_Radial40" cx="0" cy="0" r="1" gradientUnits="userSpaceOnUse" gradientTransform="matrix(8.04207,0,0,8.04207,240.862,58.5439)"><stop offset="0" style="stop-color:rgb(161,234,230);stop-opacity:1"/><stop offset="1" style="stop-color:rgb(123,188,230);stop-opacity:1"/></radialGradient>
        <radialGradient id="_Radial41" cx="0" cy="0" r="1" gradientUnits="userSpaceOnUse" gradientTransform="matrix(8.04207,0,0,8.04207,240.862,58.5439)"><stop offset="0" style="stop-color:rgb(161,234,230);stop-opacity:1"/><stop offset="1" style="stop-color:rgb(123,188,230);stop-opacity:1"/></radialGradient>
        <radialGradient id="_Radial42" cx="0" cy="0" r="1" gradientUnits="userSpaceOnUse" gradientTransform="matrix(8.04207,0,0,8.04207,240.862,58.5439)"><stop offset="0" style="stop-color:rgb(161,234,230);stop-opacity:1"/><stop offset="1" style="stop-color:rgb(123,188,230);stop-opacity:1"/></radialGradient>
        <radialGradient id="_Radial43" cx="0" cy="0" r="1" gradientUnits="userSpaceOnUse" gradientTransform="matrix(8.04207,0,0,8.04207,240.862,58.5439)"><stop offset="0" style="stop-color:rgb(161,234,230);stop-opacity:1"/><stop offset="1" style="stop-color:rgb(123,188,230);stop-opacity:1"/></radialGradient>
        <radialGradient id="_Radial44" cx="0" cy="0" r="1" gradientUnits="userSpaceOnUse" gradientTransform="matrix(8.04207,0,0,8.04207,240.862,58.5439)"><stop offset="0" style="stop-color:rgb(161,234,230);stop-opacity:1"/><stop offset="1" style="stop-color:rgb(123,188,230);stop-opacity:1"/></radialGradient>
        <radialGradient id="_Radial45" cx="0" cy="0" r="1" gradientUnits="userSpaceOnUse" gradientTransform="matrix(8.04207,0,0,8.04207,240.862,58.5439)"><stop offset="0" style="stop-color:rgb(161,234,230);stop-opacity:1"/><stop offset="1" style="stop-color:rgb(123,188,230);stop-opacity:1"/></radialGradient>
        <radialGradient id="_Radial46" cx="0" cy="0" r="1" gradientUnits="userSpaceOnUse" gradientTransform="matrix(8.04207,0,0,8.04207,240.862,58.5439)"><stop offset="0" style="stop-color:rgb(161,234,230);stop-opacity:1"/><stop offset="1" style="stop-color:rgb(123,188,230);stop-opacity:1"/></radialGradient>
        <radialGradient id="_Radial47" cx="0" cy="0" r="1" gradientUnits="userSpaceOnUse" gradientTransform="matrix(8.04207,0,0,8.04207,240.862,58.5439)"><stop offset="0" style="stop-color:rgb(161,234,230);stop-opacity:1"/><stop offset="1" style="stop-color:rgb(123,188,230);stop-opacity:1"/></radialGradient>
        <radialGradient id="_Radial48" cx="0" cy="0" r="1" gradientUnits="userSpaceOnUse" gradientTransform="matrix(8.04207,0,0,8.04207,240.862,58.5439)"><stop offset="0" style="stop-color:rgb(161,234,230);stop-opacity:1"/><stop offset="1" style="stop-color:rgb(123,188,230);stop-opacity:1"/></radialGradient>
        <radialGradient id="_Radial49" cx="0" cy="0" r="1" gradientUnits="userSpaceOnUse" gradientTransform="matrix(8.04207,0,0,8.04207,240.862,58.5439)"><stop offset="0" style="stop-color:rgb(161,234,230);stop-opacity:1"/><stop offset="1" style="stop-color:rgb(123,188,230);stop-opacity:1"/></radialGradient>
        <radialGradient id="_Radial50" cx="0" cy="0" r="1" gradientUnits="userSpaceOnUse" gradientTransform="matrix(8.04207,0,0,8.04207,240.862,58.5439)"><stop offset="0" style="stop-color:rgb(161,234,230);stop-opacity:1"/><stop offset="1" style="stop-color:rgb(123,188,230);stop-opacity:1"/></radialGradient>
        <radialGradient id="_Radial51" cx="0" cy="0" r="1" gradientUnits="userSpaceOnUse" gradientTransform="matrix(8.04207,0,0,8.04207,240.862,58.5439)"><stop offset="0" style="stop-color:rgb(161,234,230);stop-opacity:1"/><stop offset="1" style="stop-color:rgb(123,188,230);stop-opacity:1"/></radialGradient>
        <radialGradient id="_Radial52" cx="0" cy="0" r="1" gradientUnits="userSpaceOnUse" gradientTransform="matrix(8.04207,0,0,8.04207,240.862,58.5439)"><stop offset="0" style="stop-color:rgb(161,234,230);stop-opacity:1"/><stop offset="1" style="stop-color:rgb(123,188,230);stop-opacity:1"/></radialGradient>
        <radialGradient id="_Radial53" cx="0" cy="0" r="1" gradientUnits="userSpaceOnUse" gradientTransform="matrix(8.04207,0,0,8.04207,240.862,58.5439)"><stop offset="0" style="stop-color:rgb(161,234,230);stop-opacity:1"/><stop offset="1" style="stop-color:rgb(123,188,230);stop-opacity:1"/></radialGradient>
        <radialGradient id="_Radial54" cx="0" cy="0" r="1" gradientUnits="userSpaceOnUse" gradientTransform="matrix(8.04207,0,0,8.04207,240.862,58.5439)"><stop offset="0" style="stop-color:rgb(161,234,230);stop-opacity:1"/><stop offset="1" style="stop-color:rgb(123,188,230);stop-opacity:1"/></radialGradient>
        <radialGradient id="_Radial55" cx="0" cy="0" r="1" gradientUnits="userSpaceOnUse" gradientTransform="matrix(8.04207,0,0,8.04207,240.862,58.5439)"><stop offset="0" style="stop-color:rgb(161,234,230);stop-opacity:1"/><stop offset="1" style="stop-color:rgb(123,188,230);stop-opacity:1"/></radialGradient>
        <radialGradient id="_Radial56" cx="0" cy="0" r="1" gradientUnits="userSpaceOnUse" gradientTransform="matrix(8.04207,0,0,8.04207,240.862,58.5439)"><stop offset="0" style="stop-color:rgb(161,234,230);stop-opacity:1"/><stop offset="1" style="stop-color:rgb(123,188,230);stop-opacity:1"/></radialGradient>
        <radialGradient id="_Radial57" cx="0" cy="0" r="1" gradientUnits="userSpaceOnUse" gradientTransform="matrix(8.04207,0,0,8.04207,240.862,58.5439)"><stop offset="0" style="stop-color:rgb(161,234,230);stop-opacity:1"/><stop offset="1" style="stop-color:rgb(123,188,230);stop-opacity:1"/></radialGradient>
        <radialGradient id="_Radial58" cx="0" cy="0" r="1" gradientUnits="userSpaceOnUse" gradientTransform="matrix(8.04207,0,0,8.04207,240.862,58.5439)"><stop offset="0" style="stop-color:rgb(161,234,230);stop-opacity:1"/><stop offset="1" style="stop-color:rgb(123,188,230);stop-opacity:1"/></radialGradient>
        <radialGradient id="_Radial59" cx="0" cy="0" r="1" gradientUnits="userSpaceOnUse" gradientTransform="matrix(8.04207,0,0,8.04207,240.862,58.5439)"><stop offset="0" style="stop-color:rgb(161,234,230);stop-opacity:1"/><stop offset="1" style="stop-color:rgb(123,188,230);stop-opacity:1"/></radialGradient>
        <radialGradient id="_Radial60" cx="0" cy="0" r="1" gradientUnits="userSpaceOnUse" gradientTransform="matrix(8.04207,0,0,8.04207,240.862,58.5439)"><stop offset="0" style="stop-color:rgb(161,234,230);stop-opacity:1"/><stop offset="1" style="stop-color:rgb(123,188,230);stop-opacity:1"/></radialGradient>
        <radialGradient id="_Radial61" cx="0" cy="0" r="1" gradientUnits="userSpaceOnUse" gradientTransform="matrix(8.04207,0,0,8.04207,240.862,58.5439)"><stop offset="0" style="stop-color:rgb(161,234,230);stop-opacity:1"/><stop offset="1" style="stop-color:rgb(123,188,230);stop-opacity:1"/></radialGradient>
        <radialGradient id="_Radial62" cx="0" cy="0" r="1" gradientUnits="userSpaceOnUse" gradientTransform="matrix(8.04207,0,0,8.04207,240.862,58.5439)"><stop offset="0" style="stop-color:rgb(161,234,230);stop-opacity:1"/><stop offset="1" style="stop-color:rgb(123,188,230);stop-opacity:1"/></radialGradient>
        <radialGradient id="_Radial63" cx="0" cy="0" r="1" gradientUnits="userSpaceOnUse" gradientTransform="matrix(8.04207,0,0,8.04207,240.862,58.5439)"><stop offset="0" style="stop-color:rgb(161,234,230);stop-opacity:1"/><stop offset="1" style="stop-color:rgb(123,188,230);stop-opacity:1"/></radialGradient>
        <radialGradient id="_Radial64" cx="0" cy="0" r="1" gradientUnits="userSpaceOnUse" gradientTransform="matrix(8.04207,0,0,8.04207,240.862,58.5439)"><stop offset="0" style="stop-color:rgb(161,234,230);stop-opacity:1"/><stop offset="1" style="stop-color:rgb(123,188,230);stop-opacity:1"/></radialGradient>
        <radialGradient id="_Radial65" cx="0" cy="0" r="1" gradientUnits="userSpaceOnUse" gradientTransform="matrix(8.04207,0,0,8.04207,240.862,58.5439)"><stop offset="0" style="stop-color:rgb(161,234,230);stop-opacity:1"/><stop offset="1" style="stop-color:rgb(123,188,230);stop-opacity:1"/></radialGradient>
        <radialGradient id="_Radial66" cx="0" cy="0" r="1" gradientUnits="userSpaceOnUse" gradientTransform="matrix(8.04207,0,0,8.04207,240.862,58.5439)"><stop offset="0" style="stop-color:rgb(161,234,230);stop-opacity:1"/><stop offset="1" style="stop-color:rgb(123,188,230);stop-opacity:1"/></radialGradient>
        <radialGradient id="_Radial67" cx="0" cy="0" r="1" gradientUnits="userSpaceOnUse" gradientTransform="matrix(8.04207,0,0,8.04207,240.862,58.5439)"><stop offset="0" style="stop-color:rgb(161,234,230);stop-opacity:1"/><stop offset="1" style="stop-color:rgb(123,188,230);stop-opacity:1"/></radialGradient>
        <radialGradient id="_Radial68" cx="0" cy="0" r="1" gradientUnits="userSpaceOnUse" gradientTransform="matrix(8.04207,0,0,8.04207,240.862,58.5439)"><stop offset="0" style="stop-color:rgb(161,234,230);stop-opacity:1"/><stop offset="1" style="stop-color:rgb(123,188,230);stop-opacity:1"/></radialGradient>
        <radialGradient id="_Radial69" cx="0" cy="0" r="1" gradientUnits="userSpaceOnUse" gradientTransform="matrix(8.04207,0,0,8.04207,240.862,58.5439)"><stop offset="0" style="stop-color:rgb(161,234,230);stop-opacity:1"/><stop offset="1" style="stop-color:rgb(123,188,230);stop-opacity:1"/></radialGradient>
        <radialGradient id="_Radial70" cx="0" cy="0" r="1" gradientUnits="userSpaceOnUse" gradientTransform="matrix(8.04207,0,0,8.04207,240.862,58.5439)"><stop offset="0" style="stop-color:rgb(161,234,230);stop-opacity:1"/><stop offset="1" style="stop-color:rgb(123,188,230);stop-opacity:1"/></radialGradient>
        <radialGradient id="_Radial71" cx="0" cy="0" r="1" gradientUnits="userSpaceOnUse" gradientTransform="matrix(8.04207,0,0,8.04207,240.862,58.5439)"><stop offset="0" style="stop-color:rgb(161,234,230);stop-opacity:1"/><stop offset="1" style="stop-color:rgb(123,188,230);stop-opacity:1"/></radialGradient>
        <radialGradient id="_Radial72" cx="0" cy="0" r="1" gradientUnits="userSpaceOnUse" gradientTransform="matrix(8.04207,0,0,8.04207,240.862,58.5439)"><stop offset="0" style="stop-color:rgb(161,234,230);stop-opacity:1"/><stop offset="1" style="stop-color:rgb(123,188,230);stop-opacity:1"/></radialGradient>
        <radialGradient id="_Radial73" cx="0" cy="0" r="1" gradientUnits="userSpaceOnUse" gradientTransform="matrix(8.04207,0,0,8.04207,240.862,58.5439)"><stop offset="0" style="stop-color:rgb(161,234,230);stop-opacity:1"/><stop offset="1" style="stop-color:rgb(123,188,230);stop-opacity:1"/></radialGradient>
        <radialGradient id="_Radial74" cx="0" cy="0" r="1" gradientUnits="userSpaceOnUse" gradientTransform="matrix(8.04207,0,0,8.04207,240.862,58.5439)"><stop offset="0" style="stop-color:rgb(161,234,230);stop-opacity:1"/><stop offset="1" style="stop-color:rgb(123,188,230);stop-opacity:1"/></radialGradient>
        <radialGradient id="_Radial75" cx="0" cy="0" r="1" gradientUnits="userSpaceOnUse" gradientTransform="matrix(8.04207,0,0,8.04207,240.862,58.5439)"><stop offset="0" style="stop-color:rgb(161,234,230);stop-opacity:1"/><stop offset="1" style="stop-color:rgb(123,188,230);stop-opacity:1"/></radialGradient>
        <radialGradient id="_Radial76" cx="0" cy="0" r="1" gradientUnits="userSpaceOnUse" gradientTransform="matrix(8.04207,0,0,8.04207,240.862,58.5439)"><stop offset="0" style="stop-color:rgb(161,234,230);stop-opacity:1"/><stop offset="1" style="stop-color:rgb(123,188,230);stop-opacity:1"/></radialGradient>
        <radialGradient id="_Radial77" cx="0" cy="0" r="1" gradientUnits="userSpaceOnUse" gradientTransform="matrix(8.04207,0,0,8.04207,240.862,58.5439)"><stop offset="0" style="stop-color:rgb(161,234,230);stop-opacity:1"/><stop offset="1" style="stop-color:rgb(123,188,230);stop-opacity:1"/></radialGradient>
        <radialGradient id="_Radial78" cx="0" cy="0" r="1" gradientUnits="userSpaceOnUse" gradientTransform="matrix(8.04207,0,0,8.04207,240.862,58.5439)"><stop offset="0" style="stop-color:rgb(161,234,230);stop-opacity:1"/><stop offset="1" style="stop-color:rgb(123,188,230);stop-opacity:1"/></radialGradient>
        <radialGradient id="_Radial79" cx="0" cy="0" r="1" gradientUnits="userSpaceOnUse" gradientTransform="matrix(8.04207,0,0,8.04207,240.862,58.5439)"><stop offset="0" style="stop-color:rgb(161,234,230);stop-opacity:1"/><stop offset="1" style="stop-color:rgb(123,188,230);stop-opacity:1"/></radialGradient>
        <radialGradient id="_Radial80" cx="0" cy="0" r="1" gradientUnits="userSpaceOnUse" gradientTransform="matrix(8.04207,0,0,8.04207,240.862,58.5439)"><stop offset="0" style="stop-color:rgb(161,234,230);stop-opacity:1"/><stop offset="1" style="stop-color:rgb(123,188,230);stop-opacity:1"/></radialGradient>
        <radialGradient id="_Radial81" cx="0" cy="0" r="1" gradientUnits="userSpaceOnUse" gradientTransform="matrix(8.04207,0,0,8.04207,240.862,58.5439)"><stop offset="0" style="stop-color:rgb(161,234,230);stop-opacity:1"/><stop offset="1" style="stop-color:rgb(123,188,230);stop-opacity:1"/></radialGradient>
        <radialGradient id="_Radial82" cx="0" cy="0" r="1" gradientUnits="userSpaceOnUse" gradientTransform="matrix(8.04207,0,0,8.04207,240.862,58.5439)"><stop offset="0" style="stop-color:rgb(161,234,230);stop-opacity:1"/><stop offset="1" style="stop-color:rgb(123,188,230);stop-opacity:1"/></radialGradient>
        <radialGradient id="_Radial83" cx="0" cy="0" r="1" gradientUnits="userSpaceOnUse" gradientTransform="matrix(8.04207,0,0,8.04207,240.862,58.5439)"><stop offset="0" style="stop-color:rgb(161,234,230);stop-opacity:1"/><stop offset="1" style="stop-color:rgb(123,188,230);stop-opacity:1"/></radialGradient>
        <radialGradient id="_Radial84" cx="0" cy="0" r="1" gradientUnits="userSpaceOnUse" gradientTransform="matrix(8.04207,0,0,8.04207,240.862,58.5439)"><stop offset="0" style="stop-color:rgb(161,234,230);stop-opacity:1"/><stop offset="1" style="stop-color:rgb(123,188,230);stop-opacity:1"/></radialGradient>
        <radialGradient id="_Radial85" cx="0" cy="0" r="1" gradientUnits="userSpaceOnUse" gradientTransform="matrix(8.04207,0,0,8.04207,240.862,58.5439)"><stop offset="0" style="stop-color:rgb(161,234,230);stop-opacity:1"/><stop offset="1" style="stop-color:rgb(123,188,230);stop-opacity:1"/></radialGradient>
        <radialGradient id="_Radial86" cx="0" cy="0" r="1" gradientUnits="userSpaceOnUse" gradientTransform="matrix(8.04207,0,0,8.04207,240.862,58.5439)"><stop offset="0" style="stop-color:rgb(161,234,230);stop-opacity:1"/><stop offset="1" style="stop-color:rgb(123,188,230);stop-opacity:1"/></radialGradient>
        <radialGradient id="_Radial87" cx="0" cy="0" r="1" gradientUnits="userSpaceOnUse" gradientTransform="matrix(8.04207,0,0,8.04207,240.862,58.5439)"><stop offset="0" style="stop-color:rgb(161,234,230);stop-opacity:1"/><stop offset="1" style="stop-color:rgb(123,188,230);stop-opacity:1"/></radialGradient>
        <radialGradient id="_Radial88" cx="0" cy="0" r="1" gradientUnits="userSpaceOnUse" gradientTransform="matrix(8.04207,0,0,8.04207,240.862,58.5439)"><stop offset="0" style="stop-color:rgb(161,234,230);stop-opacity:1"/><stop offset="1" style="stop-color:rgb(123,188,230);stop-opacity:1"/></radialGradient>
        <radialGradient id="_Radial89" cx="0" cy="0" r="1" gradientUnits="userSpaceOnUse" gradientTransform="matrix(8.04207,0,0,8.04207,240.862,58.5439)"><stop offset="0" style="stop-color:rgb(161,234,230);stop-opacity:1"/><stop offset="1" style="stop-color:rgb(123,188,230);stop-opacity:1"/></radialGradient>
        <radialGradient id="_Radial90" cx="0" cy="0" r="1" gradientUnits="userSpaceOnUse" gradientTransform="matrix(8.04207,0,0,8.04207,240.862,58.5439)"><stop offset="0" style="stop-color:rgb(161,234,230);stop-opacity:1"/><stop offset="1" style="stop-color:rgb(123,188,230);stop-opacity:1"/></radialGradient>
        <radialGradient id="_Radial91" cx="0" cy="0" r="1" gradientUnits="userSpaceOnUse" gradientTransform="matrix(8.04207,0,0,8.04207,240.862,58.5439)"><stop offset="0" style="stop-color:rgb(161,234,230);stop-opacity:1"/><stop offset="1" style="stop-color:rgb(123,188,230);stop-opacity:1"/></radialGradient>
        <radialGradient id="_Radial92" cx="0" cy="0" r="1" gradientUnits="userSpaceOnUse" gradientTransform="matrix(8.04207,0,0,8.04207,240.862,58.5439)"><stop offset="0" style="stop-color:rgb(161,234,230);stop-opacity:1"/><stop offset="1" style="stop-color:rgb(123,188,230);stop-opacity:1"/></radialGradient>
        <radialGradient id="_Radial93" cx="0" cy="0" r="1" gradientUnits="userSpaceOnUse" gradientTransform="matrix(8.04207,0,0,8.04207,240.862,58.5439)"><stop offset="0" style="stop-color:rgb(161,234,230);stop-opacity:1"/><stop offset="1" style="stop-color:rgb(123,188,230);stop-opacity:1"/></radialGradient>
        <radialGradient id="_Radial94" cx="0" cy="0" r="1" gradientUnits="userSpaceOnUse" gradientTransform="matrix(8.04207,0,0,8.04207,240.862,58.5439)"><stop offset="0" style="stop-color:rgb(161,234,230);stop-opacity:1"/><stop offset="1" style="stop-color:rgb(123,188,230);stop-opacity:1"/></radialGradient>
        <radialGradient id="_Radial95" cx="0" cy="0" r="1" gradientUnits="userSpaceOnUse" gradientTransform="matrix(8.04207,0,0,8.04207,240.862,58.5439)"><stop offset="0" style="stop-color:rgb(161,234,230);stop-opacity:1"/><stop offset="1" style="stop-color:rgb(123,188,230);stop-opacity:1"/></radialGradient>
        <radialGradient id="_Radial96" cx="0" cy="0" r="1" gradientUnits="userSpaceOnUse" gradientTransform="matrix(8.04207,0,0,8.04207,240.862,58.5439)"><stop offset="0" style="stop-color:rgb(161,234,230);stop-opacity:1"/><stop offset="1" style="stop-color:rgb(123,188,230);stop-opacity:1"/></radialGradient>
        <radialGradient id="_Radial97" cx="0" cy="0" r="1" gradientUnits="userSpaceOnUse" gradientTransform="matrix(8.04207,0,0,8.04207,240.862,58.5439)"><stop offset="0" style="stop-color:rgb(161,234,230);stop-opacity:1"/><stop offset="1" style="stop-color:rgb(123,188,230);stop-opacity:1"/></radialGradient>
        <radialGradient id="_Radial98" cx="0" cy="0" r="1" gradientUnits="userSpaceOnUse" gradientTransform="matrix(8.04207,0,0,8.04207,240.862,58.5439)"><stop offset="0" style="stop-color:rgb(161,234,230);stop-opacity:1"/><stop offset="1" style="stop-color:rgb(123,188,230);stop-opacity:1"/></radialGradient>
        <radialGradient id="_Radial99" cx="0" cy="0" r="1" gradientUnits="userSpaceOnUse" gradientTransform="matrix(8.04207,0,0,8.04207,240.862,58.5439)"><stop offset="0" style="stop-color:rgb(161,234,230);stop-opacity:1"/><stop offset="1" style="stop-color:rgb(123,188,230);stop-opacity:1"/></radialGradient>
        <radialGradient id="_Radial100" cx="0" cy="0" r="1" gradientUnits="userSpaceOnUse" gradientTransform="matrix(8.04207,0,0,8.04207,240.862,58.5439)"><stop offset="0" style="stop-color:rgb(161,234,230);stop-opacity:1"/><stop offset="1" style="stop-color:rgb(123,188,230);stop-opacity:1"/></radialGradient>
        <radialGradient id="_Radial101" cx="0" cy="0" r="1" gradientUnits="userSpaceOnUse" gradientTransform="matrix(8.04207,0,0,8.04207,240.862,58.5439)"><stop offset="0" style="stop-color:rgb(161,234,230);stop-opacity:1"/><stop offset="1" style="stop-color:rgb(123,188,230);stop-opacity:1"/></radialGradient>
        <radialGradient id="_Radial102" cx="0" cy="0" r="1" gradientUnits="userSpaceOnUse" gradientTransform="matrix(8.04207,0,0,8.04207,240.862,58.5439)"><stop offset="0" style="stop-color:rgb(161,234,230);stop-opacity:1"/><stop offset="1" style="stop-color:rgb(123,188,230);stop-opacity:1"/></radialGradient>
        <radialGradient id="_Radial103" cx="0" cy="0" r="1" gradientUnits="userSpaceOnUse" gradientTransform="matrix(8.04207,0,0,8.04207,240.862,58.5439)"><stop offset="0" style="stop-color:rgb(161,234,230);stop-opacity:1"/><stop offset="1" style="stop-color:rgb(123,188,230);stop-opacity:1"/></radialGradient>
        <radialGradient id="_Radial104" cx="0" cy="0" r="1" gradientUnits="userSpaceOnUse" gradientTransform="matrix(8.04207,0,0,8.04207,240.862,58.5439)"><stop offset="0" style="stop-color:rgb(161,234,230);stop-opacity:1"/><stop offset="1" style="stop-color:rgb(123,188,230);stop-opacity:1"/></radialGradient>
        <radialGradient id="_Radial105" cx="0" cy="0" r="1" gradientUnits="userSpaceOnUse" gradientTransform="matrix(8.04207,0,0,8.04207,240.862,58.5439)"><stop offset="0" style="stop-color:rgb(161,234,230);stop-opacity:1"/><stop offset="1" style="stop-color:rgb(123,188,230);stop-opacity:1"/></radialGradient>
        <radialGradient id="_Radial106" cx="0" cy="0" r="1" gradientUnits="userSpaceOnUse" gradientTransform="matrix(8.04207,0,0,8.04207,240.862,58.5439)"><stop offset="0" style="stop-color:rgb(161,234,230);stop-opacity:1"/><stop offset="1" style="stop-color:rgb(123,188,230);stop-opacity:1"/></radialGradient>
        <radialGradient id="_Radial107" cx="0" cy="0" r="1" gradientUnits="userSpaceOnUse" gradientTransform="matrix(8.04207,0,0,8.04207,240.862,58.5439)"><stop offset="0" style="stop-color:rgb(161,234,230);stop-opacity:1"/><stop offset="1" style="stop-color:rgb(123,188,230);stop-opacity:1"/></radialGradient>
        <radialGradient id="_Radial108" cx="0" cy="0" r="1" gradientUnits="userSpaceOnUse" gradientTransform="matrix(8.04207,0,0,8.04207,240.862,58.5439)"><stop offset="0" style="stop-color:rgb(161,234,230);stop-opacity:1"/><stop offset="1" style="stop-color:rgb(123,188,230);stop-opacity:1"/></radialGradient>
        <radialGradient id="_Radial109" cx="0" cy="0" r="1" gradientUnits="userSpaceOnUse" gradientTransform="matrix(8.04207,0,0,8.04207,240.862,58.5439)"><stop offset="0" style="stop-color:rgb(161,234,230);stop-opacity:1"/><stop offset="1" style="stop-color:rgb(123,188,230);stop-opacity:1"/></radialGradient>
        <radialGradient id="_Radial110" cx="0" cy="0" r="1" gradientUnits="userSpaceOnUse" gradientTransform="matrix(8.04207,0,0,8.04207,240.862,58.5439)"><stop offset="0" style="stop-color:rgb(161,234,230);stop-opacity:1"/><stop offset="1" style="stop-color:rgb(123,188,230);stop-opacity:1"/></radialGradient>
        <radialGradient id="_Radial111" cx="0" cy="0" r="1" gradientUnits="userSpaceOnUse" gradientTransform="matrix(8.04207,0,0,8.04207,240.862,58.5439)"><stop offset="0" style="stop-color:rgb(161,234,230);stop-opacity:1"/><stop offset="1" style="stop-color:rgb(123,188,230);stop-opacity:1"/></radialGradient>
        <radialGradient id="_Radial112" cx="0" cy="0" r="1" gradientUnits="userSpaceOnUse" gradientTransform="matrix(8.04207,0,0,8.04207,240.862,58.5439)"><stop offset="0" style="stop-color:rgb(161,234,230);stop-opacity:1"/><stop offset="1" style="stop-color:rgb(123,188,230);stop-opacity:1"/></radialGradient>
        <radialGradient id="_Radial113" cx="0" cy="0" r="1" gradientUnits="userSpaceOnUse" gradientTransform="matrix(8.04207,0,0,8.04207,240.862,58.5439)"><stop offset="0" style="stop-color:rgb(161,234,230);stop-opacity:1"/><stop offset="1" style="stop-color:rgb(123,188,230);stop-opacity:1"/></radialGradient>
        <radialGradient id="_Radial114" cx="0" cy="0" r="1" gradientUnits="userSpaceOnUse" gradientTransform="matrix(8.04207,0,0,8.04207,240.862,58.5439)"><stop offset="0" style="stop-color:rgb(161,234,230);stop-opacity:1"/><stop offset="1" style="stop-color:rgb(123,188,230);stop-opacity:1"/></radialGradient>
    </defs>
</svg>
