<?xml version="1.0" encoding="UTF-8"?>
<svg width="321.44" height="285.38" clip-rule="evenodd" fill-rule="evenodd" stroke-miterlimit="10" version="1.1" viewBox="0 0 321.44 285.38" xml:space="preserve" xmlns="http://www.w3.org/2000/svg">
    <g transform="translate(-2553.4 -170.52)">
        <rect x="2553.4" y="325.9" width="130" height="130" clip-rule="evenodd" fill="#6868ee" fill-rule="evenodd" stroke-miterlimit="10" stroke-width="1.4558"/><g transform="translate(2430)">
            <clipPath id="_clip1">
                <path d="m123.41 329.31c0 69.912 56.675 126.59 126.59 126.59s126.59-56.674 126.59-126.59-56.675-126.59-126.59-126.59-126.59 56.675-126.59 126.59z" clip-rule="nonzero"/>
            </clipPath>
            <g clip-path="url(#_clip1)">
                <g transform="matrix(0 1 1 0 250 202.73)">
                    <path d="m126.59-126.59c-69.912 0-126.59 56.674-126.59 126.59s56.675 126.59 126.59 126.59 126.59-56.675 126.59-126.59-56.674-126.59-126.59-126.59" fill="#6868ee" fill-rule="nonzero"/>
                </g>
                <g transform="translate(335.46 350.88)">
                    <path d="m0-35.274-12.81-0.053-0.145 35.294 12.809 0.053c8.19 0.033 14.856-6.578 14.89-14.767l0.023-5.637c0.033-8.19-6.578-14.856-14.767-14.89" fill="#b1b1f7" fill-rule="nonzero"/>
                </g>
                <g transform="matrix(-.99997 -.0081254 -.0081254 .99997 327.3 320.7)">
                    <path d="m-23.013 12.98h3.692c2.836-0.082 4.372 0.204 6.7-1.916 1.958-1.782 2.582-4.378 4.224-6.456 1.641-2.077 4.685-4.684 8.446-4.091" fill="none" stroke="#d4d1fe" stroke-width="2px"/>
                </g>
                <g transform="translate(164.75 350.88)">
                    <path d="m0-35.274 12.81-0.053 0.145 35.294-12.81 0.053c-8.189 0.033-14.855-6.578-14.889-14.767l-0.023-5.638c-0.034-8.189 6.578-14.855 14.767-14.889" fill="#b1b1f7" fill-rule="nonzero"/>
                </g>
                <g transform="matrix(.99997 -.0081254 -.0081254 -.99997 150.05 333.96)">
                    <path d="m-0.053 0.093h3.692c2.836 0.082 4.372-0.204 6.7 1.916 1.958 1.782 2.583 4.378 4.224 6.456 1.642 2.077 4.685 4.684 8.446 4.091" fill="none" stroke="#d4d1fe" stroke-width="2px"/>
                </g>
                <g transform="translate(250.1 376.03)">
                    <path d="m0-108.51c46.398 0 84.011 37.613 84.011 84.011v1e-3c0 3.446-2.211 6.505-5.484 7.587l-57.55 12.409c-13.622 4.501-28.331 4.501-41.954 0l-57.55-12.409c-3.273-1.082-5.484-4.141-5.484-7.587v-1e-3c0-46.398 37.613-84.011 84.011-84.011" fill="#d4d1fe" fill-rule="nonzero"/>
                </g>
                <g transform="translate(250.1 367.47)">
                    <path d="m0-65.021c43.164 0 78.156 20.796 78.156 46.45 0 1.906-2.057 3.598-5.102 4.196l-53.539 11.887c-12.673 2.488-26.357 2.488-39.03 0l-53.54-11.887c-3.045-0.598-5.101-2.29-5.101-4.196 0-25.653 34.991-46.45 78.156-46.45" fill="#28287f" fill-rule="nonzero"/>
                </g>
                <g transform="matrix(-1 0 0 1 286.6 342.44)">
                    <path d="m-1e-3 -9.587c-2.643 0-4.793 2.15-4.793 4.793 0 2.644 2.15 4.794 4.793 4.794 2.644 0 4.794-2.15 4.794-4.794 0-2.643-2.15-4.793-4.794-4.793" fill="#00cda1" fill-rule="nonzero"/>
                </g>
                <g transform="matrix(-1 0 0 1 213.6 342.44)">
                    <path d="m1e-3 -9.587c-2.644 0-4.794 2.15-4.794 4.793 0 2.644 2.15 4.794 4.794 4.794 2.643 0 4.793-2.15 4.793-4.794 0-2.643-2.15-4.793-4.793-4.793" fill="#00cda1" fill-rule="nonzero"/>
                </g>
                <g transform="matrix(-1 0 0 1 236.52 355.66)">
                    <path d="m-27.167-10.274s13.061 10.274 27.167 0" fill="none" stroke="#00cda1" stroke-width="3px"/>
                </g>
            </g>
        
        
            <g transform="translate(224.28 265.38)">
                <clipPath id="_clip2">
                    <path d="m-58.195 86.157c0 3.447 2.211 6.505 5.484 7.587l57.551 12.41c13.622 4.5 28.331 4.5 41.953 0l57.55-12.41c3.274-1.082 5.484-4.14 5.484-7.587 0-46.398-37.612-84.012-84.011-84.012-46.398 0-84.011 37.614-84.011 84.012z" clip-rule="nonzero"/>
                </clipPath>
                <g clip-path="url(#_clip2)">
                    <path d="m0 20.543h51.632c7.68 0 14.881-3.729 19.314-9.998l7.455-10.545h-105.17l7.455 10.545c4.434 6.269 11.635 9.998 19.314 9.998z" fill="none" stroke="#28287f" stroke-width="2px"/>
                </g>
            </g>
        
        
            <clipPath id="_clip3">
                <path d="m123.41 329.31c0 69.912 56.675 126.59 126.59 126.59s126.59-56.674 126.59-126.59-56.675-126.59-126.59-126.59-126.59 56.675-126.59 126.59z" clip-rule="nonzero"/>
            </clipPath>
            <g clip-path="url(#_clip3)">
                <g transform="translate(195.54 424.19)">
                    <path d="m0 26.211 29.319-50.782c11.349-19.656 39.72-19.656 51.069 0l29.319 50.782c11.348 19.656-2.837 44.227-25.535 44.227h-58.638c-22.697 0-36.882-24.571-25.534-44.227" fill="#d4d1fe" fill-rule="nonzero"/>
                </g>
                <g transform="translate(250.4 398.57)">
                    <path d="m0 69.468c5.347 0 9.682-4.335 9.682-9.682v-50.104c0-5.347-4.335-9.682-9.682-9.682s-9.682 4.335-9.682 9.682v50.104c0 5.347 4.335 9.682 9.682 9.682" fill="#28287f" fill-rule="nonzero"/>
                </g>
                <g transform="matrix(0 1 1 0 299.01 433.5)">
                    <path d="m-48.611-48.611h97.222" fill="none" stroke="#fff" stroke-width="2px"/>
                </g>
            </g>
        
        
            <g transform="translate(328.02 267.52)">
                <path d="m0-97.002h77.84c21.531 0 38.986 17.455 38.986 38.986 0 21.532-17.455 38.986-38.986 38.986h-70.837l-19.03 19.03v-20.93c-15.643-5.07-26.959-19.753-26.959-37.086 0-21.531 17.455-38.986 38.986-38.986" fill="#d4d1fe" fill-rule="nonzero"/>
            </g>
        
        
            <g transform="matrix(0 1 1 0 397.01 205.38)">
                <path d="m4.314-4.312c2.382 0 4.311 1.931 4.311 4.313s-1.929 4.313-4.311 4.313c-2.383 0-4.313-1.931-4.313-4.313s1.93-4.313 4.313-4.313" fill="#28287f" fill-rule="nonzero"/>
            </g>
        
        
            <g transform="matrix(0 1 1 0 366.94 205.38)">
                <path d="m4.314-4.312c2.382 0 4.311 1.931 4.311 4.313s-1.929 4.313-4.311 4.313c-2.383 0-4.313-1.931-4.313-4.313s1.93-4.313 4.313-4.313" fill="#28287f" fill-rule="nonzero"/>
            </g>
        
        
            <g transform="matrix(0 1 1 0 336.88 205.38)">
                <path d="m4.314-4.312c2.382 0 4.311 1.931 4.311 4.313s-1.929 4.313-4.311 4.313c-2.383 0-4.313-1.931-4.313-4.313s1.93-4.313 4.313-4.313" fill="#28287f" fill-rule="nonzero"/>
            </g>
        </g>
    </g>
</svg>
