<?xml version="1.0" encoding="UTF-8" standalone="no"?>
<!DOCTYPE svg PUBLIC "-//W3C//DTD SVG 1.1//EN" "http://www.w3.org/Graphics/SVG/1.1/DTD/svg11.dtd">
<svg width="100%" height="100%" viewBox="0 0 533 537" version="1.1" xmlns="http://www.w3.org/2000/svg" xmlns:xlink="http://www.w3.org/1999/xlink" xml:space="preserve" xmlns:serif="http://www.serif.com/" style="fill-rule:evenodd;clip-rule:evenodd;stroke-miterlimit:10;">
    <g transform="matrix(1,0,0,1,-273.701,-97.4114)">
        <g transform="matrix(1,0,0,1,540,555.134)">
            <path d="M0,-382.847C-51.131,-382.847 -99.201,-362.935 -135.356,-326.781C-171.512,-290.625 -191.424,-242.555 -191.424,-191.423C-191.424,-140.292 -171.512,-92.221 -135.356,-56.066C-99.201,-19.911 -51.131,0.001 0,0.001C51.132,0.001 99.202,-19.911 135.357,-56.066C171.513,-92.221 191.424,-140.292 191.424,-191.423C191.424,-242.555 171.513,-290.625 135.357,-326.781C99.202,-362.935 51.132,-382.847 0,-382.847M0,74.876C-35.934,74.876 -70.812,67.83 -103.667,53.934C-135.382,40.52 -163.857,21.324 -188.302,-3.12C-212.746,-27.565 -231.942,-56.04 -245.357,-87.756C-259.253,-120.61 -266.299,-155.49 -266.299,-191.423C-266.299,-227.357 -259.253,-262.236 -245.357,-295.09C-231.942,-326.806 -212.746,-355.281 -188.302,-379.725C-163.857,-404.17 -135.382,-423.367 -103.667,-436.781C-70.812,-450.677 -35.934,-457.723 0,-457.723C35.935,-457.723 70.813,-450.677 103.668,-436.781C135.383,-423.367 163.858,-404.17 188.303,-379.725C212.747,-355.281 231.943,-326.806 245.357,-295.09C259.254,-262.236 266.3,-227.357 266.3,-191.423C266.3,-155.49 259.254,-120.61 245.357,-87.756C231.943,-56.04 212.747,-27.565 188.303,-3.12C163.858,21.324 135.383,40.52 103.668,53.934C70.813,67.83 35.935,74.876 0,74.876" style="fill:rgb(104,104,238);fill-rule:nonzero;"/>
        </g>
        <g>
            <clipPath id="_clip1">
                <path d="M436.333,118.354C404.617,131.768 376.142,150.965 351.697,175.409C327.253,199.853 308.057,228.328 294.643,260.044C280.746,292.899 273.7,327.777 273.7,363.712C273.7,399.645 280.746,434.525 294.643,467.379C308.057,499.094 327.253,527.569 351.697,552.014C376.142,576.458 404.617,595.654 436.333,609.068C469.188,622.965 504.066,630.011 540,630.011C575.934,630.011 610.812,622.965 643.667,609.068C675.383,595.654 703.858,576.458 728.302,552.014C752.746,527.569 771.943,499.094 785.357,467.379C799.254,434.525 806.3,399.645 806.3,363.712C806.3,327.777 799.254,292.899 785.357,260.044C771.943,228.328 752.746,199.853 728.302,175.409C703.858,150.965 675.383,131.768 643.667,118.354C610.812,104.458 575.934,97.411 540,97.411C504.066,97.411 469.188,104.458 436.333,118.354Z" clip-rule="nonzero"/>
            </clipPath>
            <g clip-path="url(#_clip1)">
                <g transform="matrix(1,0,0,1,560.452,273.321)">
                    <path d="M0,45.081L17.337,85.738L78.329,85.738L78.329,27.049C78.329,-28.089 35.453,-75.049 -19.65,-77.009C-77.5,-79.065 -125.045,-32.779 -125.045,24.612C-125.045,73.61 -90.388,114.511 -44.25,124.146L-62.884,69.09C-70.274,47.253 -54.035,24.612 -30.981,24.612C-17.485,24.612 -5.293,32.667 0,45.081" style="fill:rgb(239,239,239);fill-rule:nonzero;"/>
                </g>
                <g transform="matrix(1,0,0,1,577.789,374.847)">
                    <path d="M0,-15.789L-17.337,-56.446C-22.63,-68.859 -34.822,-76.915 -48.318,-76.915C-71.372,-76.915 -87.611,-54.274 -80.221,-32.437L-61.587,22.619L-47.976,61.126L60.992,61.126L60.992,-15.789L0,-15.789Z" style="fill:rgb(212,209,254);fill-rule:nonzero;"/>
                </g>
                <g transform="matrix(0,-1,-1,0,530.01,318.119)">
                    <ellipse cx="-21.923" cy="-0" rx="21.923" ry="21.923" style="fill:none;stroke:rgb(40,40,127);stroke-width:3px;"/>
                </g>
                <g transform="matrix(0,-1,-1,0,530.01,330.052)">
                    <path d="M-9.989,-9.99C-15.506,-9.99 -19.979,-5.518 -19.979,-0.001C-19.979,5.516 -15.506,9.989 -9.989,9.989C-4.472,9.989 0,5.516 0,-0.001C0,-5.518 -4.472,-9.99 -9.989,-9.99" style="fill:rgb(0,205,161);fill-rule:nonzero;"/>
                </g>
                <g transform="matrix(1,0,0,1,537.094,382.229)">
                    <path d="M0,-21.437L11.949,0L101.687,0" style="fill:none;fill-rule:nonzero;stroke:rgb(40,40,127);stroke-width:3px;"/>
                </g>
                <g transform="matrix(1,0,0,1,638.781,358.762)">
                    <path d="M0,-47.923L25.177,0L0,0L0,-47.923Z" style="fill:rgb(104,104,238);fill-rule:nonzero;"/>
                </g>
                <g transform="matrix(1,0,0,1,444.515,484.214)">
                    <path d="M0,-144.173L28.465,0L148.749,0L148.749,-48.241L85.298,-48.241L62.902,-112.704L0,-144.173Z" style="fill:rgb(104,104,238);fill-rule:nonzero;"/>
                </g>
                <g transform="matrix(0.971098,0.238682,0.238682,-0.971098,606.509,325.043)">
                    <path d="M3.146,1.301C8.72,4.209 12.362,10.18 12.387,16.466C12.414,23.571 8.551,29.292 3.146,32.212L-21.924,11.505C-18.751,1.402 -7.059,-4.023 3.146,1.301" style="fill:rgb(212,209,254);fill-rule:nonzero;"/>
                </g>
                <g transform="matrix(1,0,0,1,626.455,336.882)">
                    <path d="M0,-46.808L-9.202,-42.37C-4.651,-38.243 -2.265,-31.766 -3.987,-24.874C-5.511,-18.774 -10.473,-13.846 -16.58,-12.351C-27.761,-9.618 -37.82,-17.676 -38.49,-28.244L-47.694,-23.806C-44.833,-9.993 -31.532,0 -16.41,-2.453C-5.09,-4.289 4.086,-13.458 5.931,-24.777C7.3,-33.173 4.829,-41.007 0,-46.808" style="fill:rgb(104,104,238);fill-rule:nonzero;"/>
                </g>
                <g transform="matrix(1,0,0,1,587.925,284.59)">
                    <path d="M0,22.926C0,13.248 7.874,5.374 17.552,5.374C22.079,5.374 26.211,7.098 29.328,9.922L38.53,5.484C32.701,-1.519 23.434,-5.56 13.318,-4.039C1.811,-2.309 -7.546,6.995 -9.378,18.487C-9.932,21.953 -9.82,25.32 -9.164,28.486L0.04,24.048C0.016,23.676 0,23.303 0,22.926" style="fill:rgb(0,205,161);fill-rule:nonzero;"/>
                </g>
                <g transform="matrix(1,0,0,1,529.813,484.214)">
                    <path d="M0,-48.241L63.451,0L63.451,-48.241L0,-48.241Z" style="fill:rgb(40,40,127);fill-rule:nonzero;"/>
                </g>
                <g transform="matrix(1,0,0,1,658.026,602.868)">
                    <path d="M0,-92.027C-0.514,-101.409 1.313,-110.317 4.944,-118.223C2.217,-118.506 -0.552,-118.653 -3.355,-118.653L-118.026,-118.653L-118.026,26.626L76.073,26.626L76.073,-43.756C74.33,-45.041 73.063,-44.659 71.921,-42.317C66.433,-40.589 60.576,-39.692 54.497,-39.776C25.805,-40.175 1.571,-63.374 0,-92.027" style="fill:rgb(104,104,238);fill-rule:nonzero;"/>
                </g>
                <g transform="matrix(1,0,0,1,425.328,629.494)">
                    <path d="M0,-145.28C-2.534,-145.28 -5.041,-145.155 -7.515,-144.924C-3.865,-137.009 -2.025,-128.089 -2.534,-118.69C-4.096,-89.849 -28.623,-66.559 -57.506,-66.398C-65.228,-66.355 -72.585,-67.895 -79.275,-70.709C-79.372,-69.102 -79.427,-67.484 -79.427,-65.852L-79.427,0L114.671,0L114.671,-145.28L0,-145.28Z" style="fill:rgb(239,239,239);fill-rule:nonzero;"/>
                </g>
                <g transform="matrix(-0.530136,-0.847913,-0.847913,0.530136,353.405,498.454)">
                    <path d="M-47.257,-52.289C-39.558,-57.703 -31.018,-60.871 -22.373,-61.973C-4.915,-27.19 -15.349,15.485 -47.257,38.218C-53.19,34.037 -58.396,28.614 -62.454,22.044C-77.629,-2.532 -70.884,-35.675 -47.257,-52.289" style="fill:rgb(212,209,254);fill-rule:nonzero;"/>
                </g>
                <g transform="matrix(-0.845907,0.533331,0.533331,0.845907,744.41,539.678)">
                    <path d="M39.539,-89.988C46.829,-85.236 53.126,-78.673 57.696,-70.458C71.627,-45.414 63.54,-12.913 39.539,2.748C33.153,6.914 26.239,9.589 19.197,10.87C0.255,-23.285 9.115,-66.082 39.539,-89.988" style="fill:rgb(239,239,239);fill-rule:nonzero;"/>
                </g>
                <g transform="matrix(-1,0,0,1,1080.64,99.392)">
                    <rect x="446.794" y="446.378" width="187.054" height="87.852" style="fill:rgb(40,40,127);"/>
                </g>
                <g transform="matrix(0,-1,-1,0,447.46,537.168)">
                    <path d="M-12.054,-12.053C-18.709,-12.053 -24.107,-6.657 -24.107,0C-24.107,6.656 -18.709,12.054 -12.054,12.054C-5.397,12.054 0.001,6.656 0.001,0C0.001,-6.657 -5.397,-12.053 -12.054,-12.053" style="fill:rgb(0,205,161);fill-rule:nonzero;"/>
                </g>
                <g transform="matrix(0,-1,-1,0,479.394,537.168)">
                    <path d="M-12.054,-12.053C-18.709,-12.053 -24.107,-6.657 -24.107,0C-24.107,6.656 -18.709,12.054 -12.054,12.054C-5.397,12.054 0.001,6.656 0.001,0C0.001,-6.657 -5.397,-12.053 -12.054,-12.053" style="fill:rgb(0,205,161);fill-rule:nonzero;"/>
                </g>
                <g transform="matrix(0,-1,-1,0,511.328,537.168)">
                    <path d="M-12.054,-12.053C-18.709,-12.053 -24.107,-6.657 -24.107,0C-24.107,6.656 -18.709,12.054 -12.054,12.054C-5.397,12.054 0.001,6.656 0.001,0C0.001,-6.657 -5.397,-12.053 -12.054,-12.053" style="fill:rgb(0,205,161);fill-rule:nonzero;"/>
                </g>
            </g>
        </g>
    </g>
</svg>
