<?xml version="1.0" encoding="UTF-8" standalone="no"?>
<svg
   width="168.89"
   height="284.39"
   version="1.1"
   viewBox="0 0 168.89 284.39"
   xml:space="preserve"
   id="svg39"
   sodipodi:docname="mobile.svg"
   inkscape:version="1.3.2 (091e20e, 2023-11-25, custom)"
   xmlns:inkscape="http://www.inkscape.org/namespaces/inkscape"
   xmlns:sodipodi="http://sodipodi.sourceforge.net/DTD/sodipodi-0.dtd"
   xmlns="http://www.w3.org/2000/svg"
   xmlns:svg="http://www.w3.org/2000/svg"><defs
     id="defs39" /><sodipodi:namedview
     id="namedview39"
     pagecolor="#ffffff"
     bordercolor="#000000"
     borderopacity="0.25"
     inkscape:showpageshadow="2"
     inkscape:pageopacity="0.0"
     inkscape:pagecheckerboard="0"
     inkscape:deskcolor="#d1d1d1"
     inkscape:zoom="2.7321634"
     inkscape:cx="58.927662"
     inkscape:cy="159.7635"
     inkscape:window-width="1920"
     inkscape:window-height="991"
     inkscape:window-x="-9"
     inkscape:window-y="-9"
     inkscape:window-maximized="1"
     inkscape:current-layer="g24" /><g
     transform="translate(26 -.45502)"
     id="g39"><g
       transform="translate(-202.72 -107.91)"
       id="g38"><g
         transform="translate(23.166 62.42)"
         id="g24"><path
           d="m288.62 52.57-94.8 54.73a7.63 7.63 0 0 0-3.45 6v213.8c0 2.19 1.55 3.09 3.45 2l94.8-54.73a7.64 7.64 0 0 0 3.44-6v-213.81c0-2.2-1.54-3.09-3.44-1.99zm-1.52 196.08c0 1.88-1.32 3.08-3 4l-86.1 49.79c-1.63 0.94-3 0.18-3-1.71v-167.48a6.56 6.56 0 0 1 3-5.12l86.2-49.76c1.63-1 3-0.18 3 1.7z"
           fill="#37474f"
           id="path1" /><path
           d="m193.39 329.27a7.73 7.73 0 0 1-6.47-0.21l-3.92-2.28a7.59 7.59 0 0 1-3.45-6v-213.78a6.57 6.57 0 0 1 0.59-2.57 8 8 0 0 1 0.41-0.83l10.85 6.26a9.17 9.17 0 0 0-0.6 1.27 6.34 6.34 0 0 0-0.42 2.13v213.8c-0.01 2.03 1.31 2.94 3.01 2.21z"
           fill="#263238"
           id="path2" /><path
           d="m242 282.9c3-1.73 5.44-0.32 5.44 3.15a12 12 0 0 1-5.44 9.42c-3 1.74-5.45 0.33-5.45-3.14a12 12 0 0 1 5.45-9.43z"
           fill="none"
           stroke="#e6e6e6"
           stroke-miterlimit="10"
           id="path3" /><path
           d="m241.22 84.54c1.27-0.73 2.31-0.14 2.31 1.34a5.13 5.13 0 0 1-2.31 4c-1.28 0.74-2.31 0.14-2.31-1.33a5.11 5.11 0 0 1 2.31-4.01z"
           id="path4" /><path
           d="m232.3 98.6 17.84-10.3c1.06-0.62 1.93-0.18 1.93 1a4.1 4.1 0 0 1-1.93 3.2l-17.84 10.28c-1.07 0.61-1.93 0.18-1.93-1a4.13 4.13 0 0 1 1.93-3.18z"
           id="path5" /><path
           d="m287.1 248.48c0 1.88-1.32 3.08-3 4l-86.1 49.78c-1.63 0.94-3 0.18-3-1.71v-167.47a6.57 6.57 0 0 1 3-5.13l86.2-49.75c1.63-1 3-0.18 3 1.7z"
           fill="#fff"
           id="path6"
           style="fill:#15012a;fill-opacity:1" /><g
           fill="#455a64"
           id="g23"><path
             d="m292 54c-0.25-1.79-1.68-2.44-3.41-1.44l-94.78 54.74a7 7 0 0 0-2.43 2.57l-10.85-6.26a6.93 6.93 0 0 1 2.44-2.56l94.8-54.74a7.61 7.61 0 0 1 6.89 0l4 2.27a7.75 7.75 0 0 1 3.34 5.42z"
             id="path7" /><path
             d="m199.78 135.22v-1.22a0.77 0.77 0 0 1 0.24-0.61h0.06c0.13-0.08 0.24 0.08 0.24 0.34v1.23a0.78 0.78 0 0 1-0.24 0.62h-0.06c-0.13 0.06-0.24-0.09-0.24-0.36z"
             id="path8" /><path
             d="m200.85 134.61v-2.13a0.77 0.77 0 0 1 0.24-0.61h0.06c0.13-0.08 0.23 0.08 0.23 0.34v2.13a0.77 0.77 0 0 1-0.23 0.61h-0.06c-0.09 0.05-0.24-0.08-0.24-0.34z"
             id="path9" /><path
             d="m201.92 134v-3a0.77 0.77 0 0 1 0.23-0.61h0.07c0.13-0.08 0.23 0.08 0.23 0.34v3a0.79 0.79 0 0 1-0.23 0.62h-0.07c-0.15 0.06-0.23-0.09-0.23-0.35z"
             id="path10" /><path
             d="m203 133.37v-5.21a0.77 0.77 0 0 1 0.23-0.61h0.07c0.13-0.07 0.23 0.08 0.23 0.35v5.2a0.78 0.78 0 0 1-0.24 0.62h-0.06c-0.14 0.07-0.23-0.08-0.23-0.35z"
             id="path11" /><path
             d="m205.87 132.06v-0.16-0.76l-1.19 0.69c-0.07 0-0.1 0-0.1-0.1v-0.28a0.66 0.66 0 0 1 0-0.15v-0.15l1.27-3.47 0.06-0.13a0.24 0.24 0 0 1 0.09-0.08l0.16-0.1h0.11a0.3 0.3 0 0 1 0 0.17v2.67l0.26-0.15h0.11a0.34 0.34 0 0 1 0 0.17v0.18a0.47 0.47 0 0 1 0 0.19 0.25 0.25 0 0 1-0.11 0.12l-0.26 0.15v0.77a0.36 0.36 0 0 1 0 0.19 0.21 0.21 0 0 1-0.11 0.12l-0.2 0.11s-0.06 0.03-0.09 0zm0-1.62v-1.9l-0.87 2.4z"
             id="path12" /><path
             d="m207.3 130.78a2.47 2.47 0 0 1-0.36-1.56 4.88 4.88 0 0 1 0.36-2 2.33 2.33 0 0 1 1-1.19 1.3 1.3 0 0 1 0.48-0.18 0.5 0.5 0 0 1 0.37 0.05 0.08 0.08 0 0 1 0 0.07 0.34 0.34 0 0 1 0 0.09l-0.11 0.39s0 0.08-0.05 0.09 0 0-0.05 0a0.7 0.7 0 0 0-0.61 0.09 1.62 1.62 0 0 0-0.67 0.83 3.56 3.56 0 0 0-0.25 1.45 2 2 0 0 0 0.24 1.18c0.16 0.19 0.37 0.21 0.65 0a2.73 2.73 0 0 0 0.3-0.21 1.79 1.79 0 0 0 0.23-0.26v-1.24l-0.5 0.28h-0.1a0.32 0.32 0 0 1 0-0.17v-0.17a0.53 0.53 0 0 1 0-0.2 0.26 0.26 0 0 1 0.1-0.11l0.8-0.46q0.08 0 0.12 0a0.46 0.46 0 0 1 0 0.2v1.77a0.71 0.71 0 0 1 0 0.16 0.31 0.31 0 0 1-0.05 0.12 2.54 2.54 0 0 1-0.94 0.93c-0.4 0.34-0.73 0.32-0.96 0.05z"
             id="path13" /><path
             d="m283.48 82.66c-0.14-0.2-0.31-0.26-0.48-0.16l-3.58 2.07a1.82 1.82 0 0 0-0.55 1.45v2.68a1.51 1.51 0 0 0 0.21 0.85 0.46 0.46 0 0 0 0.19 0.18 0.29 0.29 0 0 0 0.28 0l3.58-2.06a1.83 1.83 0 0 0 0.55-1.45v-2.71a1.57 1.57 0 0 0-0.2-0.85zm-4.27 6.55a0.8 0.8 0 0 1-0.08-0.4v-2.68a1.43 1.43 0 0 1 0.42-1.1l3.58-2.03a0.16 0.16 0 0 1 0.15 0 0.12 0.12 0 0 1 0.07 0 0.87 0.87 0 0 1 0.07 0.39v2.68a1.41 1.41 0 0 1-0.42 1.1l-3.58 2.07q-0.14 0.08-0.21-0.03z"
             id="path14" /><path
             d="m281.47 84.4v3.17l-1.93 1.12h-0.06v-2.49a1.08 1.08 0 0 1 0.31-0.82z"
             id="path15" /><path
             d="m283.86 83.42c0.13-0.07 0.24 0.31 0.24 0.86v0.5a2 2 0 0 1-0.24 1.16l-0.24 0.16v-2.53z"
             id="path16" /><path
             d="m214.14 126.44a1.84 1.84 0 0 1-0.69 1.47c-0.39 0.22-0.7-0.08-0.7-0.67a1.83 1.83 0 0 1 0.7-1.47c0.38-0.22 0.69 0.08 0.69 0.67z"
             id="path17" /><path
             d="m213.45 124a4.16 4.16 0 0 0-1.62 2.42c-0.06 0.21 0 0.42 0.08 0.49 0.13 0.08 0.32-0.09 0.4-0.36a3 3 0 0 1 1.14-1.72 0.73 0.73 0 0 1 1.13 0.4c0.08 0.19 0.28 0.13 0.41-0.1a0.76 0.76 0 0 0 0.07-0.58 1 1 0 0 0-1.61-0.55z"
             id="path18" /><path
             d="m213.45 122.31a6.49 6.49 0 0 0-2.48 3.53c-0.08 0.23-0.06 0.46 0.06 0.53 0.12 0.08 0.31-0.08 0.4-0.34a5.26 5.26 0 0 1 2-2.89 1.34 1.34 0 0 1 2 0.55c0.09 0.16 0.27 0.11 0.4-0.12a0.73 0.73 0 0 0 0.06-0.6 1.65 1.65 0 0 0-2.44-0.66z"
             id="path19" /><path
             d="m237.51 113.67a0.37 0.37 0 0 1 0 0.14 0.17 0.17 0 0 1-0.08 0.1l-0.18 0.11a0.08 0.08 0 0 1-0.08 0 0.16 0.16 0 0 1 0-0.11v-3.65l-0.7 1.22s-0.06 0.08-0.09 0.09a0.08 0.08 0 0 1-0.08 0l-0.1-0.15a0.16 0.16 0 0 1 0-0.12 0.42 0.42 0 0 1 0-0.15l0.92-1.62a0.3 0.3 0 0 1 0.07-0.08h0.07l0.18-0.1a0.06 0.06 0 0 1 0.08 0 0.18 0.18 0 0 1 0 0.11z"
             id="path20" /><path
             d="m238.52 110.13a0.07 0.07 0 0 1 0.09 0 0.16 0.16 0 0 1 0 0.11v0.44a0.4 0.4 0 0 1 0 0.15s-0.05 0.08-0.09 0.1l-0.29 0.16a0.06 0.06 0 0 1-0.08 0 0.18 0.18 0 0 1 0-0.11v-0.44a0.4 0.4 0 0 1 0-0.15 0.21 0.21 0 0 1 0.08-0.1zm0 2.33a0.07 0.07 0 0 1 0.09 0 0.16 0.16 0 0 1 0 0.11v0.43a0.4 0.4 0 0 1 0 0.15 0.22 0.22 0 0 1-0.09 0.1l-0.29 0.17a0.06 0.06 0 0 1-0.08 0 0.16 0.16 0 0 1 0-0.11v-0.44a0.4 0.4 0 0 1 0-0.15 0.27 0.27 0 0 1 0.08-0.1z"
             id="path21" /><path
             d="m240.64 112a0.06 0.06 0 0 1-0.08 0 0.16 0.16 0 0 1 0-0.11v-0.89l-1.36 0.78h-0.08a0.15 0.15 0 0 1 0-0.1v-0.24a0.52 0.52 0 0 1 0.06-0.26l1.36-3.54a0.8 0.8 0 0 1 0.08-0.16 0.2 0.2 0 0 1 0.09-0.09l0.17-0.1a0.06 0.06 0 0 1 0.08 0 0.12 0.12 0 0 1 0 0.11v2.77l0.37-0.21a0.06 0.06 0 0 1 0.08 0 0.18 0.18 0 0 1 0 0.11v0.24a0.4 0.4 0 0 1 0 0.15 0.27 0.27 0 0 1-0.08 0.1l-0.37 0.21v0.91a0.28 0.28 0 0 1 0 0.15 0.21 0.21 0 0 1-0.08 0.1zm-0.11-1.62v-1.87l-0.94 2.41z"
             id="path22" /><path
             d="m242.14 110.05 0.06 0.17a0.3 0.3 0 0 0 0.12 0.13 0.33 0.33 0 0 0 0.2 0 1.14 1.14 0 0 0 0.34-0.13 2.19 2.19 0 0 0 0.25-0.2 1.21 1.21 0 0 0 0.21-0.28 1.28 1.28 0 0 0 0.14-0.34 1.35 1.35 0 0 0 0.06-0.41 1 1 0 0 0-0.05-0.33c0-0.08-0.08-0.14-0.14-0.16a0.37 0.37 0 0 0-0.21 0 1.12 1.12 0 0 0-0.26 0.11l-0.36 0.21a0.05 0.05 0 0 1-0.08 0 0.11 0.11 0 0 1 0-0.1v-0.24a0.5 0.5 0 0 1 0-0.12v-0.12l0.78-1.73-1.24 0.71a0.07 0.07 0 0 1-0.09 0 0.18 0.18 0 0 1 0-0.11v-0.24a0.4 0.4 0 0 1 0-0.15 0.22 0.22 0 0 1 0.09-0.1l1.69-1a0.1 0.1 0 0 1 0.09 0 0.16 0.16 0 0 1 0 0.11v0.27a0.5 0.5 0 0 1 0 0.12 0.94 0.94 0 0 1-0.06 0.15l-0.68 1.73a0.92 0.92 0 0 1 0.39-0.12 0.42 0.42 0 0 1 0.31 0.09 0.68 0.68 0 0 1 0.2 0.32 1.81 1.81 0 0 1 0.07 0.52 2.37 2.37 0 0 1-0.09 0.65 2.13 2.13 0 0 1-0.23 0.58 2.08 2.08 0 0 1-0.34 0.48 1.58 1.58 0 0 1-0.41 0.34 1.31 1.31 0 0 1-0.5 0.19 0.5 0.5 0 0 1-0.35-0.08 0.46 0.46 0 0 1-0.2-0.25 1.23 1.23 0 0 1-0.07-0.39 0.27 0.27 0 0 1 0-0.12 0.18 0.18 0 0 1 0.06-0.08l0.2-0.12a0.06 0.06 0 0 1 0.08 0 0.11 0.11 0 0 1 0.02 0.04z"
             id="path23" /></g></g><g
         transform="matrix(.25118 0 0 .25118 33.014 1.12)"
         id="g37">
	<linearGradient
   id="SVGID_1_"
   x1="786.19"
   x2="1119.9"
   y1="1232.5"
   y2="778.54"
   gradientUnits="userSpaceOnUse">
		<stop
   stop-color="#A647FC"
   offset=".0644"
   id="stop24" />
		<stop
   stop-color="#A04CFB"
   offset=".1617"
   id="stop25" />
		<stop
   stop-color="#9059FA"
   offset=".29"
   id="stop26" />
		<stop
   stop-color="#746EF7"
   offset=".4351"
   id="stop27" />
		<stop
   stop-color="#5488F4"
   offset=".5716"
   id="stop28" />
		<stop
   stop-color="#0AC1EB"
   offset=".9748"
   id="stop29" />
	</linearGradient>
	<path
   class="st0"
   d="m1172.1 933.2c-10.786-0.571-20.308 7.994-20.573 18.906-0.01 0.308-0.018 0.615-0.031 0.919-0.777 17.75-27.348 17.465-27.957-0.291-0.233-6.784-0.787-13.912-1.587-22.08-0.807-22.217-6.486-43.644-16.214-62.948-4.375-8.68-0.457-18.997 8.278-23.262 9.807-4.788 18.37-12.021 24.738-20.882 4.467-6.216 8.815-13.289 10.49-20.843 1.505-6.79-1.918-14.809-8.781-17.053-6.774-2.215-14.674-0.533-21.647-0.533-6.142 0-10.679-5.564-9.648-11.62 1.206-7.085 1.009-13.433 0.414-18.388-0.701-5.834-6.465-9.662-12.16-8.214l-156.93 39.9c-55.038 10.932-102.1 51.883-117.8 108.73-7.047 25.512-7.2 51.207-1.624 75.164 1.349 5.796 1.823 14.818-4.052 18.486-8.254 5.154-18.072-2.901-21.956-9.865-0.568-1.019-1.067-2.079-1.468-3.175-3.9-10.677-16.062-15.966-26.652-11.248-9.683 4.314-13.793 15.905-10.089 25.837 11.739 31.483 40.658 49.532 75.156 61.513 14.802 5.141 38.153 21.721 44.458 62.735 6.05 39.363-26.181 90.397-58.71 99.536-7.809 2.741-12.813 3.847-15.46 4.582-15.341 4.265-15.912 26.94 2.352 30.159 43.35 8.816 105.2 4.802 161.29-24.887 56.309-28.529 106.88-82.729 132.8-147.59l0.148-0.348c8.074-18.963 23.188-34.128 42.263-41.933 6.342-2.595 12.655-6.093 18.586-10.772 19.438-15.336 29.962-38.874 31.275-69.959 0.462-10.902-8.001-20.114-18.907-20.573z"
   fill="url(#SVGID_1_)"
   id="path29" />



	
		<path
   class="st3"
   d="m1172.3 828.74 7.775 33.061c0.689 2.928 2.975 5.215 5.904 5.904l33.061 7.775-33.061 7.775c-2.928 0.689-5.215 2.975-5.904 5.904l-7.775 33.061-7.775-33.061c-0.689-2.928-2.975-5.215-5.904-5.904l-33.061-7.775 33.061-7.775c2.928-0.689 5.215-2.975 5.904-5.904z"
   id="path30" />
		<path
   class="st3"
   d="m1219 797.24 4.238 18.02c0.375 1.596 1.622 2.842 3.218 3.218l18.02 4.238-18.02 4.238c-1.596 0.375-2.842 1.622-3.218 3.218l-4.238 18.02-4.238-18.02c-0.375-1.596-1.622-2.842-3.218-3.218l-18.02-4.238 18.02-4.238c1.596-0.375 2.842-1.622 3.218-3.218z"
   id="path31" />
	


	
		<g
   class="st8"
   id="g32">
			<path
   d="m1172.1 933.2c-10.786-0.571-20.308 7.994-20.573 18.906-0.01 0.308-0.018 0.615-0.031 0.919-0.12 2.731-0.901 4.983-2.054 6.862-4.024 22.282-13.75 39.778-29.228 51.99-5.932 4.68-12.244 8.177-18.586 10.772-19.075 7.805-34.189 22.97-42.264 41.933l-0.148 0.348c-25.921 64.863-76.496 119.06-132.8 147.59-40.388 21.376-83.743 29.425-121.04 28.972-2.038-0.025-3.754 1.518-3.945 3.547s1.206 3.869 3.215 4.223c-1e-3 0 0 0 0 0 43.35 8.816 105.2 4.802 161.29-24.887 56.309-28.529 106.88-82.729 132.8-147.59l0.148-0.348c8.074-18.963 23.188-34.128 42.264-41.933 6.342-2.595 12.654-6.093 18.586-10.772 19.438-15.336 29.962-38.874 31.275-69.959 0.462-10.902-8.001-20.114-18.907-20.573z"
   id="path32" />
		</g>
		<path
   class="st9"
   d="m1023.3 866.42h-97.673c-37.231 0-67.412 30.181-67.412 67.412s30.181 67.412 67.412 67.412h47.63v27.356l76.616-32.795c24.018-10.312 40.839-34.178 40.839-61.972 0-37.232-30.182-67.413-67.412-67.413z"
   id="path33" />
		
			<circle
   class="st10"
   cx="1024.6"
   cy="934.25"
   r="30.683"
   id="circle33" />
			<circle
   class="st11"
   cx="1024.6"
   cy="934.25"
   r="20.402"
   id="circle34" />
			<path
   class="st10"
   d="m1048.7 934.99c0 5.163-4.185 9.348-9.348 9.348s-9.348-4.185-9.348-9.348 4.185-9.348 9.348-9.348 9.348 4.185 9.348 9.348z"
   id="path34" />
			
				<path
   class="st12"
   d="m993.97 934.25c-0.98-17.112 13.642-31.846 30.683-31.673 12.474-0.119 24.494 8.022 28.794 19.746 1.412 3.826 2.106 7.906 1.889 11.927-0.368-8.048-3.884-15.715-9.533-21.15-19.192-18.342-50.611-5.244-51.833 21.15z"
   id="path35" />
			
		
		
			<circle
   class="st10"
   cx="922.72"
   cy="934.25"
   r="30.683"
   id="circle35" />
			<circle
   class="st11"
   cx="922.72"
   cy="934.25"
   r="20.402"
   id="circle36" />
			<path
   class="st10"
   d="m946.77 934.99c0 5.163-4.185 9.348-9.348 9.348s-9.348-4.185-9.348-9.348 4.185-9.348 9.348-9.348c5.162 0 9.348 4.185 9.348 9.348z"
   id="path36" />
			
				<path
   class="st12"
   d="m892.03 934.25c-0.98-17.112 13.642-31.846 30.683-31.673 12.474-0.119 24.494 8.022 28.794 19.746 1.412 3.826 2.107 7.906 1.889 11.927-0.368-8.048-3.884-15.715-9.533-21.15-19.191-18.342-50.611-5.244-51.833 21.15z"
   id="path37" />
			
		
	
</g></g></g><style
     type="text/css"
     id="style39">
	.st0{fill:url(#SVGID_1_);}
	.st1{fill:url(#SVGID_00000100353694981261461860000015795228784563656352_);}
	.st2{fill:url(#SVGID_00000100365823871909145070000018190340866348265148_);}
	.st3{fill:#8B22FC;}
	.st4{fill:url(#SVGID_00000104671511129096025470000014476161546703564719_);}
	.st5{fill:#5488F4;}
	.st6{fill:#0AC1EB;}
	.st7{fill:none;stroke:#000000;stroke-miterlimit:10;}
	.st8{opacity:0.1;}
	.st9{opacity:0.3;}
	.st10{fill:#FFFFFF;}
	.st11{fill:#1D343A;}
	.st12{fill:#306177;}
</style></svg>
