<?xml version="1.0" encoding="UTF-8"?>
<!-- Generator: Adobe Illustrator 28.1.0, SVG Export Plug-In . SVG Version: 6.00 Build 0)  -->
<svg width="1139.3" height="313.56" version="1.1" viewBox="0 0 1139.3 313.56" xml:space="preserve" xmlns="http://www.w3.org/2000/svg">
<style type="text/css">
	.st0{fill:url(#SVGID_1_);}
	.st1{fill:url(#SVGID_00000020368978575523113490000002365526830975177359_);}
	.st2{fill:url(#SVGID_00000087409251360995302920000012266972341586110364_);}
	.st3{fill:#8B22FC;}
	.st4{fill:url(#SVGID_00000132083177069666705750000005440425590215066513_);}
	.st5{fill:#5488F4;}
	.st6{fill:#0AC1EB;}
	.st7{fill:none;stroke:#000000;stroke-miterlimit:10;}
	.st8{opacity:0.1;}
	.st9{opacity:0.3;}
	.st10{fill:#FFFFFF;}
	.st11{fill:#1D343A;}
	.st12{fill:#306177;}
</style>
<g transform="translate(-430.34 -843.22)">
	<linearGradient id="SVGID_1_" x1="449.32" x2="655.8" y1="1143.8" y2="862.98" gradientUnits="userSpaceOnUse">
		<stop stop-color="#A647FC" offset=".0644"/>
		<stop stop-color="#A04CFB" offset=".1617"/>
		<stop stop-color="#9059FA" offset=".29"/>
		<stop stop-color="#746EF7" offset=".4351"/>
		<stop stop-color="#5488F4" offset=".5716"/>
		<stop stop-color="#0AC1EB" offset=".9748"/>
	</linearGradient>
	<path class="st0" d="m688.1 958.67c-6.674-0.353-12.565 4.946-12.729 11.698-5e-3 0.191-0.011 0.38-0.02 0.568-0.481 10.982-16.921 10.806-17.297-0.18-0.144-4.198-0.487-8.608-0.982-13.662-0.5-13.746-4.013-27.004-10.032-38.947-2.707-5.371-0.283-11.754 5.122-14.393 6.068-2.963 11.366-7.438 15.306-12.921 2.764-3.846 5.454-8.222 6.49-12.896 0.931-4.201-1.187-9.163-5.433-10.551-4.191-1.371-9.079-0.33-13.394-0.33-3.8 0-6.607-3.443-5.969-7.19 0.746-4.384 0.624-8.311 0.256-11.377-0.434-3.61-4-5.978-7.523-5.082l-97.098 24.687c-34.053 6.764-63.173 32.102-72.889 67.273-4.36 15.785-4.455 31.683-1.005 46.506 0.835 3.586 1.128 9.168-2.507 11.438-5.107 3.189-11.182-1.795-13.585-6.104-0.352-0.631-0.66-1.286-0.908-1.965-2.413-6.606-9.938-9.879-16.49-6.959-5.991 2.669-8.534 9.841-6.243 15.986 7.263 19.479 25.156 30.647 46.501 38.06 9.158 3.181 23.606 13.439 27.507 38.816 3.743 24.355-16.199 55.931-36.326 61.586-4.832 1.696-7.928 2.38-9.566 2.835-9.492 2.639-9.845 16.669 1.455 18.66 26.822 5.455 65.088 2.971 99.794-15.398 34.84-17.651 66.132-51.187 82.17-91.319l0.092-0.215c4.996-11.733 14.347-21.116 26.149-25.945 3.924-1.606 7.83-3.77 11.5-6.665 12.027-9.489 18.539-24.052 19.351-43.286 0.287-6.744-4.949-12.444-11.697-12.728z" fill="url(#SVGID_1_)"/>





	
		<path class="st3" d="m688.2 894.04 4.811 20.456c0.426 1.812 1.841 3.227 3.653 3.653l20.456 4.811-20.456 4.811c-1.812 0.426-3.227 1.841-3.653 3.653l-4.811 20.456-4.811-20.456c-0.426-1.812-1.841-3.227-3.653-3.653l-20.456-4.811 20.456-4.811c1.812-0.426 3.227-1.841 3.653-3.653z"/>
		<path class="st3" d="m717.12 874.55 2.622 11.15c0.232 0.988 1.003 1.759 1.991 1.991l11.15 2.622-11.15 2.622c-0.988 0.232-1.759 1.003-1.991 1.991l-2.622 11.15-2.622-11.15c-0.232-0.988-1.003-1.759-1.991-1.991l-11.15-2.622 11.15-2.622c0.988-0.232 1.759-1.003 1.991-1.991z"/>
	


	
		<g class="st8">
			<path d="m688.1 958.67c-6.674-0.353-12.565 4.946-12.729 11.698-5e-3 0.191-0.011 0.38-0.02 0.568-0.074 1.69-0.558 3.083-1.271 4.246-2.49 13.787-8.507 24.611-18.084 32.167-3.67 2.895-7.576 5.059-11.5 6.665-11.802 4.829-21.154 14.212-26.15 25.945l-0.092 0.215c-16.038 40.132-47.33 73.667-82.17 91.319-24.989 13.226-51.814 18.206-74.892 17.926-1.261-0.015-2.323 0.939-2.441 2.195s0.746 2.394 1.989 2.613c-1e-3 0 0 0 0 0 26.822 5.455 65.088 2.971 99.794-15.398 34.84-17.651 66.132-51.187 82.17-91.319l0.092-0.215c4.996-11.733 14.347-21.116 26.15-25.945 3.924-1.606 7.829-3.77 11.5-6.665 12.027-9.489 18.539-24.052 19.351-43.286 0.287-6.745-4.949-12.445-11.697-12.729z"/>
		</g>
		<path class="st9" d="m596.03 917.35h-60.433c-23.036 0-41.71 18.674-41.71 41.709 0 23.036 18.674 41.71 41.71 41.71h29.47v16.926l47.404-20.291c14.86-6.38 25.268-21.147 25.268-38.344 1e-3 -23.036-18.673-41.71-41.709-41.71z"/>
		
			<circle class="st10" cx="596.86" cy="959.32" r="18.984"/>
			<circle class="st11" cx="596.86" cy="959.32" r="12.623"/>
			<path class="st10" d="m611.74 959.78c0 3.194-2.59 5.784-5.784 5.784s-5.784-2.59-5.784-5.784 2.59-5.784 5.784-5.784c3.195 0 5.784 2.59 5.784 5.784z"/>
			
				<path class="st12" d="m577.88 959.32c-0.7-13.78 13.891-23.534 26.471-18.074 7.073 2.911 11.955 10.428 11.497 18.074-0.3-9.999-9.013-18.547-18.984-18.372-9.97-0.178-18.688 8.373-18.984 18.372z"/>
			
		
		
			<circle class="st10" cx="533.79" cy="959.32" r="18.984"/>
			<circle class="st11" cx="533.79" cy="959.32" r="12.623"/>
			<path class="st10" d="m548.68 959.78c0 3.194-2.59 5.784-5.784 5.784s-5.784-2.59-5.784-5.784 2.59-5.784 5.784-5.784 5.784 2.59 5.784 5.784z"/>
			
				<path class="st12" d="m514.81 959.32c-0.7-13.78 13.891-23.534 26.471-18.074 7.073 2.911 11.955 10.428 11.497 18.074-0.3-9.999-9.013-18.547-18.984-18.372-9.97-0.178-18.689 8.373-18.984 18.372z"/>
			
		
	


	
		<path d="m799.12 1047.2c-7.473-3.152-13.913-7.725-19.319-13.715-0.636-0.741-0.954-1.456-0.954-2.146 0-0.795 0.397-1.59 1.193-2.385l9.541-9.222c0.688-0.688 1.404-1.034 2.146-1.034 0.847 0 1.616 0.398 2.306 1.193 3.816 3.816 8.201 6.746 13.158 8.785 4.955 2.041 10.029 3.061 15.224 3.061 5.989 0 10.719-1.193 14.192-3.578 3.471-2.385 5.207-5.724 5.207-10.017 0-2.862-0.835-5.247-2.504-7.155-1.67-1.909-4.214-3.59-7.632-5.049-3.419-1.458-8.202-3.061-14.351-4.81-9.699-2.65-17.862-6.491-24.487-11.527-6.626-5.035-9.938-12.296-9.938-21.784 0-5.777 1.523-11.037 4.572-15.782 3.047-4.742 7.525-8.506 13.436-11.289 5.909-2.782 12.946-4.174 21.108-4.174 6.943 0 13.635 1.206 20.075 3.617 6.439 2.412 12.176 5.737 17.212 9.977 0.847 0.636 1.272 1.379 1.272 2.226 0 0.742-0.318 1.484-0.954 2.226l-8.746 10.096c-0.689 0.849-1.458 1.273-2.306 1.273-0.689 0-1.405-0.291-2.146-0.875-3.234-2.544-6.957-4.624-11.171-6.241-4.214-1.616-8.387-2.425-12.522-2.425-5.354 0-9.673 1.008-12.959 3.021-3.287 2.015-4.929 4.904-4.929 8.666 0 2.702 0.847 4.929 2.544 6.679 1.696 1.749 3.921 3.194 6.678 4.333 2.755 1.14 6.757 2.504 12.005 4.095l1.749 0.556c7.738 2.491 14.138 5.101 19.201 7.831 5.061 2.73 9.089 6.201 12.084 10.415 2.994 4.214 4.492 9.42 4.492 15.621 0 6.945-1.737 13-5.207 18.167-3.472 5.167-8.296 9.142-14.469 11.925-6.176 2.782-13.211 4.174-21.108 4.174-8.323 1e-3 -16.22-1.576-23.693-4.729z"/>
		<path d="m961.47 959.53c7.261 4.4 12.986 10.389 17.173 17.967 4.186 7.58 6.281 15.901 6.281 24.964 0 9.117-2.094 17.465-6.281 25.044-4.188 7.58-9.898 13.582-17.133 18.007-7.235 4.426-15.278 6.639-24.129 6.639-5.777 0-10.971-1.088-15.582-3.26s-8.561-5.194-11.846-9.062v35.379c0 2.119-1.061 3.18-3.18 3.18h-14.072c-2.121 0-3.181-1.061-3.181-3.18v-117.51c0-2.119 1.06-3.18 3.181-3.18h11.051c1.908 0 3.074 0.927 3.498 2.782l1.272 9.142c3.391-4.186 7.486-7.485 12.283-9.897 4.796-2.411 10.322-3.617 16.576-3.617 8.798 0 16.827 2.2 24.089 6.598zm-10.176 69.207c4.186-2.57 7.434-6.107 9.739-10.614 2.306-4.504 3.458-9.62 3.458-15.344 0-5.725-1.18-10.892-3.537-15.504-2.359-4.611-5.632-8.229-9.819-10.852-4.188-2.622-8.932-3.935-14.231-3.935-5.354 0-10.176 1.326-14.469 3.975-4.294 2.651-7.646 6.281-10.057 10.892-2.412 4.611-3.617 9.752-3.617 15.424 0 5.671 1.219 10.772 3.658 15.304 2.437 4.532 5.816 8.084 10.136 10.654 4.319 2.571 9.156 3.856 14.509 3.856 5.298 1e-3 10.043-1.284 14.23-3.856z"/>
		<path d="m1011.1 937.99v-13.197c0-2.12 1.06-3.181 3.181-3.181h14.23c2.119 0 3.181 1.061 3.181 3.181v13.197c0 2.12-1.061 3.18-3.181 3.18h-14.23c-2.121 0-3.181-1.06-3.181-3.18zm17.332 112.18h-14.072c-2.121 0-3.18-1.06-3.18-3.18v-89.282c0-2.119 1.059-3.18 3.18-3.18h14.072c2.119 0 3.18 1.061 3.18 3.18v89.282c0 2.12-1.061 3.18-3.18 3.18z"/>
		<path d="m1127.9 958.26c1.165 0.69 1.75 1.59 1.75 2.704 0 0.53-0.16 1.086-0.478 1.669l-6.202 11.607c-0.636 1.168-1.458 1.75-2.464 1.75-0.636 0-1.246-0.185-1.829-0.557-4.241-2.277-8.296-3.417-12.164-3.417-3.764 0-7.314 1.112-10.654 3.339-3.339 2.226-6.042 5.472-8.109 9.739-2.067 4.268-3.101 9.29-3.101 15.066v46.827c0 2.12-1.061 3.18-3.18 3.18h-14.072c-2.121 0-3.181-1.06-3.181-3.18v-89.282c0-2.119 1.06-3.18 3.181-3.18h11.051c1.908 0 3.074 0.927 3.498 2.782l1.908 8.666c2.65-2.915 5.128-5.287 7.434-7.116s4.929-3.271 7.871-4.332c2.942-1.06 6.321-1.59 10.137-1.59 6.043-1e-3 12.244 1.775 18.604 5.325z"/>
		<path d="m1151.8 937.99v-13.197c0-2.12 1.06-3.181 3.181-3.181h14.23c2.12 0 3.181 1.061 3.181 3.181v13.197c0 2.12-1.061 3.18-3.181 3.18h-14.23c-2.121 0-3.181-1.06-3.181-3.18zm17.333 112.18h-14.072c-2.12 0-3.18-1.06-3.18-3.18v-89.282c0-2.119 1.06-3.18 3.18-3.18h14.072c2.119 0 3.18 1.061 3.18 3.18v89.282c0 2.12-1.062 3.18-3.18 3.18z"/>
		<path d="m1224.3 1050.2h-14.071c-2.121 0-3.18-1.06-3.18-3.18v-73.461h-9.939c-2.12 0-3.18-1.06-3.18-3.18v-12.641c0-2.119 1.06-3.18 3.18-3.18h9.859v-16.855c0-1.96 0.954-3.126 2.863-3.497l14.23-2.624c0.211-0.052 0.478-0.08 0.796-0.08 0.846 0 1.51 0.266 1.988 0.795 0.476 0.531 0.715 1.246 0.715 2.146v20.115h17.172c2.12 0 3.18 1.061 3.18 3.18v12.641c0 2.12-1.06 3.18-3.18 3.18h-17.252v73.461c0 2.12-1.061 3.18-3.181 3.18z"/>
		<path d="m1278.6 1048.8c-6.149-2.438-11.794-5.856-16.935-10.256-0.847-0.689-1.271-1.458-1.271-2.305 0-0.689 0.29-1.404 0.874-2.147l6.599-8.427c0.743-0.9 1.511-1.351 2.306-1.351 0.583 0 1.297 0.292 2.146 0.875 3.604 2.597 7.685 4.73 12.244 6.4 4.557 1.669 9.01 2.504 13.356 2.504 4.135 0 7.5-0.994 10.097-2.981 2.596-1.987 3.895-4.597 3.895-7.831 0-2.172-0.663-4.015-1.988-5.525-1.325-1.511-3.352-2.875-6.081-4.095-2.731-1.219-6.56-2.596-11.489-4.134-8.162-2.544-14.815-6.082-19.955-10.614-5.142-4.531-7.712-10.666-7.712-18.405 0-4.823 1.219-9.341 3.657-13.555s6.134-7.605 11.091-10.176c4.955-2.571 11.036-3.856 18.245-3.856 5.089 0 10.309 0.968 15.662 2.901 5.353 1.936 10.017 4.731 13.992 8.387 0.743 0.69 1.114 1.431 1.114 2.226s-0.346 1.539-1.034 2.226l-8.427 8.746c-0.743 0.742-1.51 1.112-2.306 1.112-0.584 0-1.299-0.291-2.146-0.875-2.385-1.801-5.127-3.271-8.229-4.412-3.1-1.139-6.215-1.709-9.341-1.709-4.083 0-7.223 0.901-9.421 2.702-2.2 1.802-3.299 4.083-3.299 6.837 0 1.856 0.596 3.472 1.789 4.85 1.193 1.379 3.126 2.704 5.804 3.975 2.675 1.272 6.346 2.624 11.011 4.055 5.935 1.856 10.971 3.962 15.105 6.32 4.134 2.36 7.42 5.394 9.859 9.104 2.438 3.71 3.657 8.267 3.657 13.674 0 5.142-1.326 9.966-3.976 14.47-2.65 4.506-6.479 8.124-11.487 10.852-5.009 2.729-10.852 4.094-17.531 4.094-7.103 1e-3 -13.727-1.218-19.875-3.656z"/>
		<path d="m1379.1 1044.4c-8.825-5.14-15.781-12.136-20.87-20.989-5.087-8.851-7.631-18.576-7.631-29.177 0-10.654 2.544-20.379 7.631-29.177 5.089-8.799 12.045-15.755 20.87-20.87s18.59-7.672 29.297-7.672c10.654 0 20.392 2.557 29.217 7.672s15.794 12.071 20.909 20.87 7.672 18.524 7.672 29.177c0 10.601-2.557 20.326-7.672 29.177-5.115 8.852-12.084 15.849-20.909 20.989-8.825 5.141-18.564 7.711-29.217 7.711-10.708 0-20.472-2.57-29.297-7.711zm47.224-17.889c5.486-3.285 9.859-7.764 13.119-13.435 3.259-5.671 4.889-11.926 4.889-18.764 0-6.889-1.63-13.17-4.889-18.842-3.26-5.67-7.646-10.136-13.159-13.396-5.512-3.259-11.475-4.889-17.887-4.889-6.414 0-12.376 1.63-17.889 4.889-5.512 3.26-9.897 7.726-13.157 13.396-3.26 5.672-4.89 11.954-4.89 18.842 0 6.837 1.63 13.092 4.89 18.764 3.26 5.671 7.645 10.15 13.157 13.435 5.512 3.287 11.475 4.93 17.889 4.93 6.465 0 12.442-1.642 17.927-4.93z"/>
		<path d="m1505.2 1047.2c-7.474-3.152-13.914-7.725-19.32-13.715-0.636-0.741-0.954-1.456-0.954-2.146 0-0.795 0.397-1.59 1.193-2.385l9.54-9.222c0.689-0.688 1.404-1.034 2.147-1.034 0.846 0 1.616 0.398 2.305 1.193 3.816 3.816 8.201 6.746 13.157 8.785 4.956 2.041 10.03 3.061 15.225 3.061 5.989 0 10.72-1.193 14.191-3.578s5.208-5.724 5.208-10.017c0-2.862-0.835-5.247-2.504-7.155-1.67-1.909-4.214-3.59-7.632-5.049-3.419-1.458-8.202-3.061-14.35-4.81-9.7-2.65-17.862-6.491-24.487-11.527-6.626-5.035-9.937-12.296-9.937-21.784 0-5.777 1.522-11.037 4.571-15.782 3.047-4.742 7.525-8.506 13.436-11.289 5.909-2.782 12.945-4.174 21.107-4.174 6.944 0 13.635 1.206 20.075 3.617 6.44 2.412 12.176 5.737 17.212 9.977 0.848 0.636 1.272 1.379 1.272 2.226 0 0.742-0.319 1.484-0.955 2.226l-8.745 10.096c-0.69 0.849-1.459 1.273-2.305 1.273-0.69 0-1.405-0.291-2.147-0.875-3.234-2.544-6.956-4.624-11.17-6.241-4.214-1.616-8.387-2.425-12.521-2.425-5.355 0-9.674 1.008-12.96 3.021-3.286 2.015-4.929 4.904-4.929 8.666 0 2.702 0.847 4.929 2.544 6.679 1.696 1.749 3.922 3.194 6.679 4.333 2.755 1.14 6.757 2.504 12.005 4.095l1.749 0.556c7.739 2.491 14.139 5.101 19.2 7.831s9.09 6.201 12.085 10.415c2.994 4.214 4.491 9.42 4.491 15.621 0 6.945-1.736 13-5.208 18.167s-8.295 9.142-14.469 11.925c-6.175 2.782-13.211 4.174-21.109 4.174-8.32 1e-3 -16.217-1.576-23.69-4.729z"/>
	
</g>


</svg>
