<?xml version="1.0" encoding="UTF-8"?>
<!-- Generator: Adobe Illustrator 28.1.0, SVG Export Plug-In . SVG Version: 6.00 Build 0)  -->
<svg width="488.99" height="506.78" version="1.1" viewBox="0 0 488.99 506.78" xml:space="preserve" xmlns="http://www.w3.org/2000/svg">
<style type="text/css">
	.st0{fill:url(#SVGID_1_);}
	.st1{fill:url(#SVGID_00000100353694981261461860000015795228784563656352_);}
	.st2{fill:url(#SVGID_00000100365823871909145070000018190340866348265148_);}
	.st3{fill:#8B22FC;}
	.st4{fill:url(#SVGID_00000104671511129096025470000014476161546703564719_);}
	.st5{fill:#5488F4;}
	.st6{fill:#0AC1EB;}
	.st7{fill:none;stroke:#000000;stroke-miterlimit:10;}
	.st8{opacity:0.1;}
	.st9{opacity:0.3;}
	.st10{fill:#FFFFFF;}
	.st11{fill:#1D343A;}
	.st12{fill:#306177;}
</style>
<g transform="translate(-755.5 -746.61)">
	<linearGradient id="SVGID_1_" x1="786.19" x2="1119.9" y1="1232.5" y2="778.54" gradientUnits="userSpaceOnUse">
		<stop stop-color="#A647FC" offset=".0644"/>
		<stop stop-color="#A04CFB" offset=".1617"/>
		<stop stop-color="#9059FA" offset=".29"/>
		<stop stop-color="#746EF7" offset=".4351"/>
		<stop stop-color="#5488F4" offset=".5716"/>
		<stop stop-color="#0AC1EB" offset=".9748"/>
	</linearGradient>
	<path class="st0" d="m1172.1 933.2c-10.786-0.571-20.308 7.994-20.573 18.906-0.01 0.308-0.018 0.615-0.031 0.919-0.777 17.75-27.348 17.465-27.957-0.291-0.233-6.784-0.787-13.912-1.587-22.08-0.807-22.217-6.486-43.644-16.214-62.948-4.375-8.68-0.457-18.997 8.278-23.262 9.807-4.788 18.37-12.021 24.738-20.882 4.467-6.216 8.815-13.289 10.49-20.843 1.505-6.79-1.918-14.809-8.781-17.053-6.774-2.215-14.674-0.533-21.647-0.533-6.142 0-10.679-5.564-9.648-11.62 1.206-7.085 1.009-13.433 0.414-18.388-0.701-5.834-6.465-9.662-12.16-8.214l-156.93 39.9c-55.038 10.932-102.1 51.883-117.8 108.73-7.047 25.512-7.2 51.207-1.624 75.164 1.349 5.796 1.823 14.818-4.052 18.486-8.254 5.154-18.072-2.901-21.956-9.865-0.568-1.019-1.067-2.079-1.468-3.175-3.9-10.677-16.062-15.966-26.652-11.248-9.683 4.314-13.793 15.905-10.089 25.837 11.739 31.483 40.658 49.532 75.156 61.513 14.802 5.141 38.153 21.721 44.458 62.735 6.05 39.363-26.181 90.397-58.71 99.536-7.809 2.741-12.813 3.847-15.46 4.582-15.341 4.265-15.912 26.94 2.352 30.159 43.35 8.816 105.2 4.802 161.29-24.887 56.309-28.529 106.88-82.729 132.8-147.59l0.148-0.348c8.074-18.963 23.188-34.128 42.263-41.933 6.342-2.595 12.655-6.093 18.586-10.772 19.438-15.336 29.962-38.874 31.275-69.959 0.462-10.902-8.001-20.114-18.907-20.573z" fill="url(#SVGID_1_)"/>



	
		<path class="st3" d="m1172.3 828.74 7.775 33.061c0.689 2.928 2.975 5.215 5.904 5.904l33.061 7.775-33.061 7.775c-2.928 0.689-5.215 2.975-5.904 5.904l-7.775 33.061-7.775-33.061c-0.689-2.928-2.975-5.215-5.904-5.904l-33.061-7.775 33.061-7.775c2.928-0.689 5.215-2.975 5.904-5.904z"/>
		<path class="st3" d="m1219 797.24 4.238 18.02c0.375 1.596 1.622 2.842 3.218 3.218l18.02 4.238-18.02 4.238c-1.596 0.375-2.842 1.622-3.218 3.218l-4.238 18.02-4.238-18.02c-0.375-1.596-1.622-2.842-3.218-3.218l-18.02-4.238 18.02-4.238c1.596-0.375 2.842-1.622 3.218-3.218z"/>
	


	
		<g class="st8">
			<path d="m1172.1 933.2c-10.786-0.571-20.308 7.994-20.573 18.906-0.01 0.308-0.018 0.615-0.031 0.919-0.12 2.731-0.901 4.983-2.054 6.862-4.024 22.282-13.75 39.778-29.228 51.99-5.932 4.68-12.244 8.177-18.586 10.772-19.075 7.805-34.189 22.97-42.264 41.933l-0.148 0.348c-25.921 64.863-76.496 119.06-132.8 147.59-40.388 21.376-83.743 29.425-121.04 28.972-2.038-0.025-3.754 1.518-3.945 3.547s1.206 3.869 3.215 4.223c-1e-3 0 0 0 0 0 43.35 8.816 105.2 4.802 161.29-24.887 56.309-28.529 106.88-82.729 132.8-147.59l0.148-0.348c8.074-18.963 23.188-34.128 42.264-41.933 6.342-2.595 12.654-6.093 18.586-10.772 19.438-15.336 29.962-38.874 31.275-69.959 0.462-10.902-8.001-20.114-18.907-20.573z"/>
		</g>
		<path class="st9" d="m1023.3 866.42h-97.673c-37.231 0-67.412 30.181-67.412 67.412s30.181 67.412 67.412 67.412h47.63v27.356l76.616-32.795c24.018-10.312 40.839-34.178 40.839-61.972 0-37.232-30.182-67.413-67.412-67.413z"/>
		
			<circle class="st10" cx="1024.6" cy="934.25" r="30.683"/>
			<circle class="st11" cx="1024.6" cy="934.25" r="20.402"/>
			<path class="st10" d="m1048.7 934.99c0 5.163-4.185 9.348-9.348 9.348s-9.348-4.185-9.348-9.348 4.185-9.348 9.348-9.348 9.348 4.185 9.348 9.348z"/>
			
				<path class="st12" d="m993.97 934.25c-0.98-17.112 13.642-31.846 30.683-31.673 12.474-0.119 24.494 8.022 28.794 19.746 1.412 3.826 2.106 7.906 1.889 11.927-0.368-8.048-3.884-15.715-9.533-21.15-19.192-18.342-50.611-5.244-51.833 21.15z"/>
			
		
		
			<circle class="st10" cx="922.72" cy="934.25" r="30.683"/>
			<circle class="st11" cx="922.72" cy="934.25" r="20.402"/>
			<path class="st10" d="m946.77 934.99c0 5.163-4.185 9.348-9.348 9.348s-9.348-4.185-9.348-9.348 4.185-9.348 9.348-9.348c5.162 0 9.348 4.185 9.348 9.348z"/>
			
				<path class="st12" d="m892.03 934.25c-0.98-17.112 13.642-31.846 30.683-31.673 12.474-0.119 24.494 8.022 28.794 19.746 1.412 3.826 2.107 7.906 1.889 11.927-0.368-8.048-3.884-15.715-9.533-21.15-19.191-18.342-50.611-5.244-51.833 21.15z"/>
			
		
	
</g>





</svg>
